<svg width="1080" height="798" viewBox="0 0 1080 798" fill="none" xmlns="http://www.w3.org/2000/svg">
<g opacity="0.07">
<path d="M1312.47 274.985C1182.93 85.9868 965.442 -38 719 -38C321.907 -38 0 283.907 0 681C0 738.771 6.81372 794.95 19.6807 848.779L385.824 482.636C420.922 447.538 477.828 447.538 512.926 482.636L808.875 778.585L1312.47 274.985Z" fill="#8794BA"/>
<path d="M1397.93 443.734L872.426 969.239C837.328 1004.34 780.422 1004.34 745.324 969.239L449.375 673.29L91.1038 1031.56C214.1 1251.39 449.195 1400 719 1400C1116.09 1400 1438 1078.09 1438 681C1438 597.861 1423.89 518.017 1397.93 443.734Z" fill="#8794BA"/>
</g>
</svg>
