<svg width="1005" height="1005" viewBox="0 0 1005 1005" fill="none" xmlns="http://www.w3.org/2000/svg">
<g opacity="0.07">
<path d="M1834.54 437.483C1653.46 173.305 1349.47 -0.00012207 1005 -0.00012207C449.954 -0.00012207 0 449.953 0 1005C0 1085.75 9.52404 1164.28 27.5092 1239.52L539.295 727.732C588.354 678.672 667.896 678.672 716.955 727.732L1130.62 1141.4L1834.54 437.483Z" fill="#8794BA"/>
<path d="M1953.99 673.356L1219.46 1407.89C1170.4 1456.95 1090.85 1456.95 1041.79 1407.89L628.125 994.223L127.343 1495.01C299.264 1802.28 627.874 2010 1005 2010C1560.05 2010 2010 1560.05 2010 1005C2010 888.79 1990.28 777.187 1953.99 673.356Z" fill="#8794BA"/>
</g>
</svg>
