<svg width="560" height="399" viewBox="0 0 560 399" fill="none" xmlns="http://www.w3.org/2000/svg">
<g opacity="0.07">
<path d="M502.387 -117.35C442.929 -204.094 343.11 -261.001 230 -261.001C47.746 -261.001 -100 -113.255 -100 68.9993C-100 95.5144 -96.8727 121.299 -90.9671 146.005L77.0818 -22.0439C93.191 -38.1531 119.309 -38.1531 135.418 -22.0439L271.25 113.788L502.387 -117.35Z" fill="#8794BA"/>
<path d="M541.609 -39.8988L300.418 201.292C284.309 217.402 258.191 217.402 242.082 201.292L106.25 65.4606L-58.186 229.897C-1.73432 330.792 106.168 398.999 230 398.999C412.254 398.999 560 251.253 560 68.9993C560 30.8407 553.523 -5.80507 541.609 -39.8988Z" fill="#8794BA"/>
</g>
</svg>
