<svg width="61" height="60" viewBox="0 0 61 60" fill="none" xmlns="http://www.w3.org/2000/svg">
<g clip-path="url(#clip0_335_64)">
<path d="M19.9341 23.3911C19.7741 23.0771 19.4611 22.8711 19.1101 22.8481L10.6978 22.2872C10.2619 22.2442 9.85887 22.5142 9.69985 22.9201L3.63534 38.4189C3.47233 38.8349 3.60534 39.3079 3.96135 39.5788C4.13935 39.7148 4.35334 39.7829 4.56626 39.7829C4.7772 39.7829 4.98825 39.7169 5.16626 39.5829L10.1999 35.8083L13.1307 36.3942C13.6087 36.4892 14.0866 36.2272 14.2606 35.7703C15.8346 31.6476 17.7293 27.8139 19.8901 24.3772C20.0772 24.079 20.0942 23.704 19.9341 23.3911ZM12.6986 34.2682L10.1529 33.7593C9.87492 33.7043 9.58489 33.7703 9.35696 33.9402L6.77816 35.874L11.2948 24.3309L17.3323 24.7329C15.5924 27.6777 14.0386 30.8754 12.6986 34.2682Z" fill="#EF2A82"/>
<path d="M38.5836 50.1741L38.0226 41.7607C37.9986 41.4086 37.7926 41.0957 37.4787 40.9357C37.1657 40.7757 36.7907 40.7916 36.4928 40.9796C33.055 43.1404 29.2223 45.0353 25.0997 46.6091C24.6437 46.7821 24.3797 47.2601 24.4758 47.739L25.0617 50.6699L21.287 55.7024C21.019 56.0604 21.0201 56.5524 21.291 56.9084C21.484 57.1623 21.781 57.3033 22.0869 57.3033C22.2089 57.3033 22.332 57.2803 22.4519 57.2363L37.9507 51.1718C38.3566 51.013 38.6126 50.6089 38.5836 50.1741ZM24.9956 54.0908L26.9294 51.512C27.0995 51.285 27.1654 50.9951 27.1094 50.716L26.6005 48.1712C29.9942 46.8313 33.1909 45.2774 36.1357 43.5376L36.5387 49.5741L24.9956 54.0908Z" fill="#EF2A82"/>
<path d="M29.8684 30.0005H23.1309C22.768 30.0005 22.434 30.1975 22.257 30.5145L13.8006 45.7094C13.5806 46.1054 13.6545 46.6013 13.9806 46.9153C14.1716 47.0993 14.4225 47.1953 14.6745 47.1953C14.8525 47.1953 15.0315 47.1483 15.1914 47.0503L30.3863 37.8551C30.6852 37.6741 30.8683 37.3501 30.8683 37.0002V31.0005C30.8684 30.4486 30.4204 30.0005 29.8684 30.0005ZM28.8686 36.4371L17.3805 43.3896L23.718 32.0014V32.0003H28.8686V36.4371Z" fill="#EF2A82"/>
<path d="M60.8202 0.96374C60.7792 0.47683 60.3933 0.0908184 59.9063 0.0498031C59.5743 0.0237878 26.6458 -2.27506 12.3929 35.0562C12.252 35.4252 12.3409 35.8411 12.6199 36.1201L17.3745 40.8747C17.5975 41.0977 17.9095 41.1997 18.2225 41.1577C18.5335 41.1127 18.8055 40.9248 18.9575 40.6497L23.7211 32.0004H28.8687V36.4491L20.1674 41.9426C19.9104 42.1056 19.7415 42.3756 19.7075 42.6776C19.6735 42.9796 19.7794 43.2805 19.9945 43.4956L24.7491 48.2502C24.9401 48.4412 25.1951 48.5432 25.456 48.5432C25.576 48.5432 25.697 48.5222 25.813 48.4772C63.146 34.2232 60.8482 1.29479 60.8202 0.96374ZM55.5746 18.7045C52.0658 27.3857 44.0364 39.1879 25.7028 46.3764L22.2931 42.9666L30.4025 37.847C30.6924 37.663 30.8684 37.344 30.8684 37.001V31.0014C30.8684 30.4495 30.4204 30.0015 29.8685 30.0015H23.129C22.764 30.0015 22.429 30.2004 22.253 30.5194L17.8463 38.5208L14.4936 35.167C27.0057 3.24758 53.6757 1.94166 58.8602 2.01467C58.8973 4.34656 58.6833 11.012 55.5746 18.7045Z" fill="#EF2A82"/>
<path d="M17.9993 44.1645C17.7822 43.8766 17.4363 43.7365 17.0973 43.7725C17.1323 43.4325 16.9923 43.0876 16.7053 42.8705C15.1975 41.7307 13.2516 41.3517 11.3648 41.8296C9.36194 42.3385 7.72402 43.7044 6.87208 45.5793L0.96061 58.5853C0.787643 58.9652 0.868619 59.4123 1.16358 59.7062C1.35459 59.8982 1.61053 59.9992 1.87056 59.9992C2.0106 59.9992 2.15158 59.9692 2.28458 59.9092L15.2906 53.9967C17.1644 53.1458 18.5304 51.5079 19.0393 49.505C19.5182 47.6202 19.1393 45.6734 17.9993 44.1645ZM17.1014 49.0131C16.7434 50.424 15.7815 51.5769 14.4636 52.1769L3.88441 56.9855L8.69304 46.4053C9.29198 45.0875 10.4459 44.1255 11.8568 43.7676C12.2278 43.6736 12.6007 43.6275 12.9687 43.6275C13.5917 43.6275 14.2006 43.7606 14.7556 44.0195L13.8036 45.7044C13.5826 46.0954 13.6497 46.5864 13.9676 46.9034C14.2855 47.2224 14.7765 47.2883 15.1665 47.0673L16.8514 46.1144C17.2614 46.9963 17.3544 48.0151 17.1014 49.0131Z" fill="#EF2A82"/>
<path d="M60.8201 0.964828C60.7791 0.477918 60.3931 0.0919066 59.9062 0.0508914C59.5162 0.019837 50.2469 -0.682109 39.3457 4.33956C39.0488 4.4755 38.8377 4.74948 38.7797 5.07151C38.7217 5.39353 38.8258 5.72341 39.0567 5.95439L54.9156 21.8132C55.1046 22.0022 55.3596 22.1062 55.6226 22.1062C55.6815 22.1062 55.7406 22.1011 55.7995 22.0912C56.1215 22.0332 56.3945 21.8222 56.5314 21.5252C61.5541 10.624 60.8521 1.35377 60.8201 0.964828ZM55.2985 19.3664L41.5036 5.57142C49.484 2.20267 56.4724 1.97064 58.8612 2.01072C58.9012 4.40155 58.6762 11.368 55.2985 19.3664Z" fill="#EF2A82"/>
<path d="M45.0311 15.8387C41.6683 12.4759 36.1979 12.4759 32.8351 15.8387C29.4723 19.2014 29.4723 24.6719 32.8351 28.0347C34.516 29.7166 36.7248 30.5566 38.9326 30.5566C41.1415 30.5566 43.3493 29.7156 45.0311 28.0347C48.3939 24.6719 48.3939 19.2013 45.0311 15.8387ZM43.6173 26.6207C41.0345 29.2035 36.8318 29.2035 34.249 26.6207C31.6663 24.038 31.6663 19.8353 34.249 17.2525C35.54 15.9616 37.2368 15.3157 38.9327 15.3157C40.6287 15.3157 42.3255 15.9616 43.6174 17.2525C46.2001 19.8353 46.2001 24.038 43.6173 26.6207Z" fill="#EF2A82"/>
<path d="M40.9206 23.925C39.8246 25.0229 38.0408 25.0219 36.9438 23.925C35.8479 22.8282 35.8479 21.0453 36.9438 19.9483C38.0398 18.8524 39.8236 18.8514 40.9206 19.9483C41.3106 20.3392 41.9445 20.3392 42.3344 19.9483C42.7254 19.5574 42.7254 18.9254 42.3344 18.5344C40.4596 16.6586 37.4058 16.6586 35.53 18.5344C33.6541 20.4102 33.6541 23.4631 35.53 25.3389C36.4679 26.2768 37.7009 26.7458 38.9327 26.7458C40.1656 26.7458 41.3975 26.2768 42.3344 25.3389C42.7254 24.9479 42.7254 24.316 42.3344 23.925C41.9444 23.5341 41.3106 23.5341 40.9206 23.925Z" fill="#EF2A82"/>
</g>
<defs>
<clipPath id="clip0_335_64">
<rect width="60" height="60" fill="white" transform="translate(0.870605)"/>
</clipPath>
</defs>
</svg>
