<svg width="61" height="60" viewBox="0 0 61 60" fill="none" xmlns="http://www.w3.org/2000/svg">
<g clip-path="url(#clip0_335_11)">
<path d="M33.8706 41H27.8706C27.3186 41 26.8706 41.448 26.8706 42C26.8706 42.5519 27.3186 43 27.8706 43H33.8706C34.4225 43 34.8705 42.5519 34.8705 42C34.8705 41.448 34.4225 41 33.8706 41Z" fill="#EF2A82"/>
<path d="M56.8696 1H4.87162C2.66557 1 0.870605 2.79508 0.870605 5.00102V38C0.870605 38.5519 1.31861 38.9999 1.87057 38.9999H59.8705C60.4225 38.9999 60.8705 38.5519 60.8705 38V5.00102C60.8706 2.79508 59.0756 1 56.8696 1ZM58.8706 37H2.87064V5.00102C2.87064 3.89699 3.76865 3.00004 4.87162 3.00004H56.8696C57.9726 3.00004 58.8706 3.89699 58.8706 5.00102V37Z" fill="#EF2A82"/>
<path d="M59.8706 36.9999H1.87057C1.31861 36.9999 0.870605 37.448 0.870605 38V42.9989C0.870605 45.2049 2.66557 46.9999 4.87162 46.9999H56.8696C59.0756 46.9999 60.8706 45.2049 60.8706 42.9989L60.8705 38C60.8705 37.448 60.4226 36.9999 59.8706 36.9999ZM58.8706 42.999C58.8706 44.103 57.9726 45 56.8696 45H4.87162C3.76865 45 2.87064 44.103 2.87064 42.999V39H58.8707L58.8706 42.999Z" fill="#EF2A82"/>
<path d="M55.8705 5.00005H5.87061C5.31866 5.00005 4.87065 5.44806 4.87065 6.00001V38C4.87065 38.552 5.31866 39 5.87061 39H55.8707C56.4226 39 56.8706 38.552 56.8706 38V6.00001C56.8706 5.44806 56.4226 5.00005 55.8705 5.00005ZM54.8706 37H6.87058V6.99997H54.8706V37Z" fill="#EF2A82"/>
<path d="M43.8705 53.0001H17.8706C16.2166 53.0001 14.8706 54.3461 14.8706 56.0001C14.8706 57.6541 16.2166 59.0001 17.8706 59.0001H43.8706C45.5246 59.0001 46.8706 57.6541 46.8706 56.0001C46.8706 54.3461 45.5245 53.0001 43.8705 53.0001ZM43.8705 57H17.8706C17.3187 57 16.8706 56.5511 16.8706 56.0001C16.8706 55.4491 17.3187 55.0001 17.8706 55.0001H43.8706C44.4226 55.0001 44.8706 55.4491 44.8706 56.0001C44.8706 56.5511 44.4226 57 43.8705 57Z" fill="#EF2A82"/>
<path d="M41.8706 53.0001C38.5525 53.0001 36.8705 50.6451 36.8705 46.0001C36.8705 45.4482 36.4225 45.0001 35.8706 45.0001H25.8706C25.3187 45.0001 24.8707 45.4482 24.8707 46.0001C24.8707 50.6451 23.1887 53.0001 19.8706 53.0001C19.3187 53.0001 18.8707 53.4481 18.8707 54C18.8707 54.552 19.3187 55 19.8706 55H41.8706C42.4225 55 42.8705 54.552 42.8705 54C42.8705 53.4481 42.4225 53.0001 41.8706 53.0001ZM24.7415 53.0001C25.9726 51.6361 26.6975 49.605 26.8435 47.0001H34.8985C35.0435 49.605 35.7685 51.6361 37.0005 53.0001H24.7415Z" fill="#EF2A82"/>
<path d="M48.6546 30.464L46.2406 28.05L47.5836 26.707C47.8326 26.458 47.9326 26.096 47.8466 25.755C47.7605 25.414 47.5016 25.144 47.1645 25.042L37.1646 22.042C36.8116 21.936 36.4306 22.033 36.1706 22.2931C35.9096 22.5531 35.8136 22.935 35.9196 23.287L38.9196 33.287C39.0206 33.625 39.2915 33.884 39.6325 33.97C39.9725 34.054 40.3355 33.9559 40.5846 33.707L41.9986 32.292L44.4125 34.707C44.5995 34.8949 44.8545 34.9999 45.1195 34.9999C45.3845 34.9999 45.6395 34.8949 45.8265 34.707L48.6544 31.8779C49.0455 31.487 49.0455 30.855 48.6546 30.464ZM45.1195 32.586L42.9215 30.387C42.6665 30.132 42.3325 30.0049 41.9986 30.0049C41.6635 30.0049 41.3295 30.1329 41.0756 30.3859L40.3536 31.1079L38.3686 24.4909L44.9855 26.4759L44.2115 27.25C43.9985 27.464 43.8815 27.748 43.8815 28.05C43.8815 28.3531 43.9995 28.639 44.2135 28.851L46.5335 31.1709L45.1195 32.586Z" fill="#EF2A82"/>
<path d="M42.8705 8.99997H14.8706C14.3186 8.99997 13.8706 9.44798 13.8706 9.99993V15C13.8706 15.5519 14.3186 15.9999 14.8706 15.9999H42.8705C43.4225 15.9999 43.8705 15.5519 43.8705 15V9.99993C43.8705 9.44798 43.4225 8.99997 42.8705 8.99997ZM41.8706 14H15.8705V11H41.8706V14Z" fill="#EF2A82"/>
<path d="M26.8707 20.0001H18.8707C18.3187 20.0001 17.8707 20.4481 17.8707 21V25C17.8707 25.5519 18.3187 25.9999 18.8707 25.9999H26.8707C27.4227 25.9999 27.8707 25.5519 27.8707 25V21C27.8707 20.4481 27.4227 20.0001 26.8707 20.0001ZM25.8707 24H19.8707V22H25.8707V24Z" fill="#EF2A82"/>
<path d="M42.8705 8.99997H14.8706C14.3186 8.99997 13.8706 9.44798 13.8706 9.99993V28.9999C13.8706 29.5518 14.3186 29.9999 14.8706 29.9999H38.6766C38.9936 29.9999 39.2906 29.8509 39.4787 29.5968C39.6677 29.3429 39.7257 29.0149 39.6346 28.7118L38.3687 24.4909L42.5837 25.7559C42.8867 25.847 43.2147 25.789 43.4676 25.5999C43.7215 25.412 43.8706 25.114 43.8706 24.7979L43.8705 9.99993C43.8705 9.44798 43.4225 8.99997 42.8705 8.99997ZM41.8706 23.454L37.1635 22.042C36.8105 21.9359 36.4296 22.033 36.1695 22.293C35.9085 22.554 35.8126 22.935 35.9185 23.2881L37.3325 28H15.8705V11H41.8706V23.454Z" fill="#EF2A82"/>
</g>
<defs>
<clipPath id="clip0_335_11">
<rect width="60" height="60" fill="white" transform="translate(0.870605)"/>
</clipPath>
</defs>
</svg>
