<svg width="437" height="323" viewBox="0 0 437 323" fill="none" xmlns="http://www.w3.org/2000/svg">
<g filter="url(#filter0_d_535_1066)">
<rect x="38" y="19" width="361" height="246.683" rx="32.0414" fill="white"/>
</g>
<path d="M318.032 95.7343L311.047 111.395H308.8L315.762 96.2904H306.634V94.5297H318.032V95.7343ZM328.677 103.982C328.229 104.515 327.693 104.943 327.067 105.268C326.449 105.592 325.77 105.754 325.028 105.754C324.055 105.754 323.206 105.515 322.48 105.036C321.762 104.557 321.206 103.885 320.812 103.02C320.418 102.148 320.221 101.186 320.221 100.136C320.221 99.0086 320.434 97.9931 320.858 97.0896C321.291 96.1861 321.901 95.495 322.688 95.0162C323.476 94.5374 324.395 94.298 325.445 94.298C327.113 94.298 328.426 94.9235 329.384 96.1745C330.349 97.4178 330.832 99.1167 330.832 101.271V101.897C330.832 105.179 330.183 107.576 328.886 109.09C327.588 110.596 325.631 111.368 323.013 111.407H322.596V109.6H323.048C324.816 109.569 326.175 109.109 327.125 108.221C328.075 107.325 328.592 105.912 328.677 103.982ZM325.376 103.982C326.094 103.982 326.754 103.762 327.357 103.321C327.967 102.881 328.411 102.337 328.689 101.688V100.831C328.689 99.4256 328.384 98.2827 327.774 97.4024C327.164 96.522 326.391 96.0818 325.457 96.0818C324.515 96.0818 323.758 96.4448 323.187 97.1707C322.615 97.8889 322.329 98.8387 322.329 100.02C322.329 101.171 322.604 102.121 323.152 102.87C323.708 103.611 324.449 103.982 325.376 103.982ZM333.6 97.773C333.6 96.7614 333.921 95.9274 334.562 95.271C335.21 94.6146 336.04 94.2864 337.052 94.2864C338.079 94.2864 338.909 94.6185 339.542 95.2826C340.183 95.939 340.504 96.7923 340.504 97.8425V98.665C340.504 99.6843 340.179 100.518 339.531 101.167C338.89 101.808 338.071 102.128 337.075 102.128C336.071 102.128 335.241 101.808 334.585 101.167C333.928 100.518 333.6 99.6573 333.6 98.5839V97.773ZM335.199 98.665C335.199 99.2673 335.368 99.7654 335.708 100.159C336.048 100.545 336.504 100.738 337.075 100.738C337.623 100.738 338.064 100.549 338.396 100.171C338.735 99.7924 338.905 99.275 338.905 98.6186V97.773C338.905 97.1707 338.739 96.6726 338.407 96.2788C338.075 95.8849 337.623 95.688 337.052 95.688C336.48 95.688 336.029 95.8849 335.697 96.2788C335.365 96.6726 335.199 97.1861 335.199 97.8194V98.665ZM341.813 107.26C341.813 106.248 342.133 105.418 342.774 104.769C343.423 104.113 344.253 103.785 345.265 103.785C346.276 103.785 347.106 104.109 347.755 104.758C348.404 105.407 348.728 106.268 348.728 107.341V108.163C348.728 109.175 348.404 110.009 347.755 110.665C347.114 111.314 346.292 111.638 345.288 111.638C344.284 111.638 343.454 111.318 342.797 110.677C342.141 110.028 341.813 109.167 341.813 108.094V107.26ZM343.411 108.163C343.411 108.773 343.581 109.275 343.921 109.669C344.261 110.055 344.716 110.248 345.288 110.248C345.844 110.248 346.288 110.059 346.62 109.681C346.952 109.295 347.118 108.773 347.118 108.117V107.26C347.118 106.65 346.948 106.152 346.608 105.766C346.276 105.379 345.828 105.186 345.265 105.186C344.716 105.186 344.268 105.379 343.921 105.766C343.581 106.144 343.411 106.658 343.411 107.306V108.163ZM337.562 110.121L336.345 109.356L344.581 96.1745L345.797 96.939L337.562 110.121Z" fill="#0088F0"/>
<path d="M308.905 126.76C308.905 126.199 309.014 125.695 309.233 125.247C309.455 124.8 309.761 124.454 310.153 124.211C310.548 123.968 310.997 123.846 311.501 123.846C312.28 123.846 312.91 124.116 313.389 124.655C313.872 125.194 314.114 125.912 314.114 126.807V126.876C314.114 127.433 314.006 127.934 313.791 128.378C313.579 128.819 313.275 129.162 312.876 129.409C312.481 129.656 312.027 129.779 311.512 129.779C310.736 129.779 310.107 129.51 309.624 128.97C309.145 128.431 308.905 127.717 308.905 126.828V126.76ZM309.888 126.876C309.888 127.511 310.035 128.02 310.327 128.404C310.623 128.789 311.018 128.981 311.512 128.981C312.009 128.981 312.404 128.787 312.696 128.399C312.989 128.008 313.135 127.461 313.135 126.76C313.135 126.132 312.985 125.625 312.686 125.237C312.39 124.845 311.995 124.65 311.501 124.65C311.018 124.65 310.629 124.842 310.333 125.226C310.036 125.61 309.888 126.16 309.888 126.876ZM320.174 126.876C320.174 127.747 319.975 128.448 319.576 128.981C319.178 129.513 318.638 129.779 317.958 129.779C317.264 129.779 316.717 129.559 316.319 129.118V131.873H315.34V123.952H316.234L316.282 124.586C316.68 124.093 317.234 123.846 317.942 123.846C318.63 123.846 319.173 124.105 319.571 124.623C319.973 125.142 320.174 125.863 320.174 126.786V126.876ZM319.195 126.765C319.195 126.12 319.058 125.61 318.783 125.237C318.508 124.863 318.131 124.676 317.651 124.676C317.059 124.676 316.615 124.939 316.319 125.464V128.198C316.611 128.72 317.059 128.981 317.662 128.981C318.131 128.981 318.503 128.796 318.778 128.425C319.056 128.052 319.195 127.498 319.195 126.765ZM322.749 122.566V123.952H323.817V124.708H322.749V128.256C322.749 128.485 322.797 128.658 322.892 128.774C322.987 128.887 323.149 128.944 323.378 128.944C323.491 128.944 323.646 128.923 323.844 128.88V129.673C323.586 129.744 323.336 129.779 323.093 129.779C322.656 129.779 322.326 129.647 322.104 129.383C321.882 129.118 321.771 128.743 321.771 128.256V124.708H320.729V123.952H321.771V122.566H322.749ZM326.028 129.673H325.049V123.952H326.028V129.673ZM324.97 122.434C324.97 122.275 325.018 122.141 325.113 122.032C325.211 121.923 325.356 121.868 325.546 121.868C325.737 121.868 325.881 121.923 325.98 122.032C326.079 122.141 326.128 122.275 326.128 122.434C326.128 122.593 326.079 122.725 325.98 122.831C325.881 122.936 325.737 122.989 325.546 122.989C325.356 122.989 325.211 122.936 325.113 122.831C325.018 122.725 324.97 122.593 324.97 122.434ZM327.339 126.76C327.339 126.199 327.448 125.695 327.667 125.247C327.889 124.8 328.196 124.454 328.587 124.211C328.982 123.968 329.431 123.846 329.936 123.846C330.715 123.846 331.344 124.116 331.823 124.655C332.306 125.194 332.548 125.912 332.548 126.807V126.876C332.548 127.433 332.44 127.934 332.225 128.378C332.014 128.819 331.709 129.162 331.31 129.409C330.916 129.656 330.461 129.779 329.946 129.779C329.171 129.779 328.541 129.51 328.058 128.97C327.579 128.431 327.339 127.717 327.339 126.828V126.76ZM328.323 126.876C328.323 127.511 328.469 128.02 328.762 128.404C329.058 128.789 329.453 128.981 329.946 128.981C330.443 128.981 330.838 128.787 331.131 128.399C331.423 128.008 331.57 127.461 331.57 126.76C331.57 126.132 331.42 125.625 331.12 125.237C330.824 124.845 330.429 124.65 329.936 124.65C329.453 124.65 329.063 124.842 328.767 125.226C328.471 125.61 328.323 126.16 328.323 126.876ZM334.7 123.952L334.732 124.671C335.169 124.121 335.74 123.846 336.445 123.846C337.654 123.846 338.264 124.528 338.275 125.892V129.673H337.297V125.887C337.293 125.475 337.198 125.17 337.011 124.972C336.828 124.775 336.54 124.676 336.149 124.676C335.832 124.676 335.553 124.761 335.314 124.93C335.074 125.099 334.887 125.321 334.753 125.596V129.673H333.775V123.952H334.7ZM345.551 129.673H344.568V123.153L342.595 123.878V122.989L345.398 121.937H345.551V129.673Z" fill="#8794BA"/>
<path d="M317.372 166.318C317.372 167.16 317.148 167.909 316.7 168.565C316.26 169.222 315.661 169.735 314.904 170.106C315.785 170.484 316.48 171.036 316.989 171.762C317.507 172.488 317.766 173.31 317.766 174.229C317.766 175.689 317.271 176.851 316.283 177.716C315.302 178.581 314.009 179.013 312.402 179.013C310.781 179.013 309.48 178.581 308.499 177.716C307.526 176.843 307.039 175.681 307.039 174.229C307.039 173.318 307.286 172.496 307.781 171.762C308.283 171.029 308.974 170.473 309.854 170.094C309.105 169.723 308.514 169.21 308.082 168.554C307.649 167.897 307.433 167.152 307.433 166.318C307.433 164.897 307.889 163.77 308.8 162.936C309.711 162.102 310.912 161.685 312.402 161.685C313.885 161.685 315.082 162.102 315.993 162.936C316.912 163.77 317.372 164.897 317.372 166.318ZM315.623 174.183C315.623 173.241 315.321 172.473 314.719 171.878C314.124 171.283 313.345 170.986 312.379 170.986C311.414 170.986 310.638 171.28 310.051 171.866C309.472 172.453 309.182 173.226 309.182 174.183C309.182 175.141 309.464 175.894 310.028 176.442C310.599 176.99 311.391 177.264 312.402 177.264C313.406 177.264 314.194 176.99 314.765 176.442C315.337 175.886 315.623 175.133 315.623 174.183ZM312.402 163.445C311.561 163.445 310.877 163.708 310.352 164.233C309.835 164.75 309.576 165.457 309.576 166.353C309.576 167.21 309.831 167.905 310.341 168.438C310.858 168.963 311.545 169.225 312.402 169.225C313.26 169.225 313.943 168.963 314.453 168.438C314.97 167.905 315.229 167.21 315.229 166.353C315.229 165.496 314.962 164.797 314.43 164.256C313.897 163.716 313.221 163.445 312.402 163.445ZM331.353 163.121L324.368 178.782H322.121L329.083 163.677H319.955V161.916H331.353V163.121ZM333.6 165.16C333.6 164.148 333.921 163.314 334.562 162.658C335.21 162.001 336.04 161.673 337.052 161.673C338.079 161.673 338.909 162.005 339.542 162.669C340.183 163.326 340.504 164.179 340.504 165.229V166.052C340.504 167.071 340.179 167.905 339.531 168.554C338.89 169.195 338.071 169.515 337.075 169.515C336.071 169.515 335.241 169.195 334.585 168.554C333.928 167.905 333.6 167.044 333.6 165.97V165.16ZM335.199 166.052C335.199 166.654 335.368 167.152 335.708 167.546C336.048 167.932 336.504 168.125 337.075 168.125C337.623 168.125 338.064 167.936 338.396 167.557C338.735 167.179 338.905 166.662 338.905 166.005V165.16C338.905 164.557 338.739 164.059 338.407 163.665C338.075 163.272 337.623 163.075 337.052 163.075C336.48 163.075 336.029 163.272 335.697 163.665C335.365 164.059 335.199 164.573 335.199 165.206V166.052ZM341.813 174.646C341.813 173.635 342.133 172.805 342.774 172.156C343.423 171.5 344.253 171.171 345.265 171.171C346.276 171.171 347.106 171.496 347.755 172.144C348.404 172.793 348.728 173.654 348.728 174.728V175.55C348.728 176.562 348.404 177.396 347.755 178.052C347.114 178.701 346.292 179.025 345.288 179.025C344.284 179.025 343.454 178.705 342.797 178.064C342.141 177.415 341.813 176.554 341.813 175.48V174.646ZM343.411 175.55C343.411 176.16 343.581 176.662 343.921 177.056C344.261 177.442 344.716 177.635 345.288 177.635C345.844 177.635 346.288 177.446 346.62 177.067C346.952 176.681 347.118 176.16 347.118 175.504V174.646C347.118 174.036 346.948 173.538 346.608 173.152C346.276 172.766 345.828 172.573 345.265 172.573C344.716 172.573 344.268 172.766 343.921 173.152C343.581 173.531 343.411 174.044 343.411 174.693V175.55ZM337.562 177.508L336.345 176.743L344.581 163.561L345.797 164.326L337.562 177.508Z" fill="#EF2A82"/>
<path d="M308.905 194.146C308.905 193.586 309.014 193.082 309.233 192.634C309.455 192.186 309.761 191.841 310.153 191.597C310.548 191.354 310.997 191.233 311.501 191.233C312.28 191.233 312.91 191.502 313.389 192.042C313.872 192.581 314.114 193.298 314.114 194.194V194.263C314.114 194.82 314.006 195.32 313.791 195.764C313.579 196.205 313.275 196.549 312.876 196.796C312.481 197.042 312.027 197.166 311.512 197.166C310.736 197.166 310.107 196.896 309.624 196.357C309.145 195.817 308.905 195.103 308.905 194.215V194.146ZM309.888 194.263C309.888 194.897 310.035 195.407 310.327 195.791C310.623 196.175 311.018 196.367 311.512 196.367C312.009 196.367 312.404 196.173 312.696 195.786C312.989 195.394 313.135 194.848 313.135 194.146C313.135 193.519 312.985 193.011 312.686 192.623C312.39 192.232 311.995 192.036 311.501 192.036C311.018 192.036 310.629 192.229 310.333 192.613C310.036 192.997 309.888 193.547 309.888 194.263ZM320.174 194.263C320.174 195.133 319.975 195.835 319.576 196.367C319.178 196.9 318.638 197.166 317.958 197.166C317.264 197.166 316.717 196.945 316.319 196.505V199.26H315.34V191.338H316.234L316.282 191.973C316.68 191.479 317.234 191.233 317.942 191.233C318.63 191.233 319.173 191.492 319.571 192.01C319.973 192.528 320.174 193.249 320.174 194.173V194.263ZM319.195 194.152C319.195 193.506 319.058 192.997 318.783 192.623C318.508 192.25 318.131 192.063 317.651 192.063C317.059 192.063 316.615 192.325 316.319 192.851V195.585C316.611 196.106 317.059 196.367 317.662 196.367C318.131 196.367 318.503 196.182 318.778 195.812C319.056 195.438 319.195 194.885 319.195 194.152ZM322.749 189.953V191.338H323.817V192.095H322.749V195.643C322.749 195.872 322.797 196.045 322.892 196.161C322.987 196.274 323.149 196.33 323.378 196.33C323.491 196.33 323.646 196.309 323.844 196.267V197.06C323.586 197.131 323.336 197.166 323.093 197.166C322.656 197.166 322.326 197.034 322.104 196.769C321.882 196.505 321.771 196.129 321.771 195.643V192.095H320.729V191.338H321.771V189.953H322.749ZM326.028 197.06H325.049V191.338H326.028V197.06ZM324.97 189.821C324.97 189.662 325.018 189.528 325.113 189.419C325.211 189.309 325.356 189.255 325.546 189.255C325.737 189.255 325.881 189.309 325.98 189.419C326.079 189.528 326.128 189.662 326.128 189.821C326.128 189.979 326.079 190.112 325.98 190.217C325.881 190.323 325.737 190.376 325.546 190.376C325.356 190.376 325.211 190.323 325.113 190.217C325.018 190.112 324.97 189.979 324.97 189.821ZM327.339 194.146C327.339 193.586 327.448 193.082 327.667 192.634C327.889 192.186 328.196 191.841 328.587 191.597C328.982 191.354 329.431 191.233 329.936 191.233C330.715 191.233 331.344 191.502 331.823 192.042C332.306 192.581 332.548 193.298 332.548 194.194V194.263C332.548 194.82 332.44 195.32 332.225 195.764C332.014 196.205 331.709 196.549 331.31 196.796C330.916 197.042 330.461 197.166 329.946 197.166C329.171 197.166 328.541 196.896 328.058 196.357C327.579 195.817 327.339 195.103 327.339 194.215V194.146ZM328.323 194.263C328.323 194.897 328.469 195.407 328.762 195.791C329.058 196.175 329.453 196.367 329.946 196.367C330.443 196.367 330.838 196.173 331.131 195.786C331.423 195.394 331.57 194.848 331.57 194.146C331.57 193.519 331.42 193.011 331.12 192.623C330.824 192.232 330.429 192.036 329.936 192.036C329.453 192.036 329.063 192.229 328.767 192.613C328.471 192.997 328.323 193.547 328.323 194.263ZM334.7 191.338L334.732 192.058C335.169 191.508 335.74 191.233 336.445 191.233C337.654 191.233 338.264 191.915 338.275 193.279V197.06H337.297V193.274C337.293 192.861 337.198 192.556 337.011 192.359C336.828 192.162 336.54 192.063 336.149 192.063C335.832 192.063 335.553 192.147 335.314 192.317C335.074 192.486 334.887 192.708 334.753 192.983V197.06H333.775V191.338H334.7ZM347.381 197.06H342.336V196.357L345.001 193.395C345.396 192.948 345.668 192.585 345.816 192.306C345.967 192.024 346.043 191.733 346.043 191.434C346.043 191.032 345.921 190.702 345.678 190.445C345.435 190.187 345.111 190.059 344.705 190.059C344.219 190.059 343.84 190.198 343.568 190.476C343.3 190.751 343.166 191.136 343.166 191.629H342.188C342.188 190.921 342.415 190.348 342.87 189.911C343.328 189.473 343.94 189.255 344.705 189.255C345.421 189.255 345.987 189.443 346.403 189.821C346.819 190.194 347.027 190.693 347.027 191.317C347.027 192.075 346.544 192.978 345.578 194.025L343.515 196.262H347.381V197.06Z" fill="#8794BA"/>
<path d="M177.093 95.537C177.041 94.1604 178.116 92.9966 179.493 93.0066C191.491 93.0932 203.166 97.0572 212.756 104.342C223.009 112.131 230.244 123.233 233.229 135.759C236.213 148.284 234.763 161.456 229.124 173.032C223.485 184.607 214.007 193.87 202.305 199.241C190.603 204.611 177.4 205.758 164.947 202.486C152.494 199.214 141.561 191.725 134.01 181.296C126.459 170.866 122.759 158.141 123.538 145.289C124.268 133.268 128.874 121.832 136.631 112.678C137.522 111.627 139.105 111.572 140.115 112.508C141.125 113.445 141.179 115.02 140.293 116.075C133.318 124.379 129.177 134.723 128.518 145.591C127.808 157.291 131.177 168.876 138.051 178.37C144.925 187.865 154.878 194.683 166.215 197.661C177.552 200.64 189.571 199.596 200.224 194.707C210.878 189.817 219.506 181.385 224.639 170.847C229.772 160.309 231.093 148.317 228.376 136.915C225.659 125.512 219.072 115.405 209.738 108.314C201.068 101.728 190.525 98.1234 179.681 97.9973C178.303 97.9812 177.145 96.9136 177.093 95.537Z" fill="#EF2A82"/>
<path d="M176.107 71.9948C176.03 70.0081 177.578 68.3264 179.567 68.3382C195.14 68.4302 210.381 73.0498 223.413 81.6721C237.447 90.9576 248.21 104.416 254.183 120.149C260.156 135.881 261.037 153.092 256.702 169.351C252.367 185.611 243.035 200.099 230.022 210.77C217.01 221.44 200.975 227.754 184.181 228.82C167.387 229.887 150.682 225.652 136.424 216.713C122.167 207.774 111.077 194.583 104.72 179.002C98.8172 164.534 97.2722 148.684 100.232 133.394C100.61 131.442 102.563 130.253 104.496 130.718C106.429 131.183 107.61 133.126 107.24 135.079C104.628 148.901 106.054 163.211 111.386 176.282C117.174 190.467 127.27 202.475 140.249 210.613C153.228 218.75 168.436 222.606 183.725 221.635C199.013 220.664 213.611 214.916 225.457 205.202C237.303 195.488 245.799 182.299 249.745 167.497C253.692 152.694 252.89 137.026 247.452 122.704C242.014 108.382 232.216 96.1299 219.44 87.6766C207.666 79.8868 193.912 75.6858 179.847 75.5406C177.859 75.5201 176.185 73.9815 176.107 71.9948Z" fill="#0088F0"/>
<path d="M170.711 147.37L170.972 144.81H173.601V145.413H171.525L171.37 146.813C171.621 146.665 171.907 146.591 172.227 146.591C172.694 146.591 173.066 146.746 173.341 147.056C173.616 147.364 173.753 147.781 173.753 148.308C173.753 148.836 173.61 149.254 173.323 149.559C173.039 149.862 172.64 150.014 172.128 150.014C171.674 150.014 171.304 149.888 171.017 149.637C170.731 149.385 170.567 149.037 170.527 148.593H171.144C171.184 148.887 171.289 149.109 171.458 149.259C171.627 149.408 171.851 149.482 172.128 149.482C172.431 149.482 172.668 149.378 172.84 149.171C173.014 148.965 173.101 148.679 173.101 148.315C173.101 147.972 173.007 147.697 172.819 147.49C172.633 147.281 172.385 147.176 172.075 147.176C171.791 147.176 171.567 147.238 171.405 147.363L171.232 147.504L170.711 147.37ZM174.765 147.37L175.026 144.81H177.656V145.413H175.579L175.424 146.813C175.676 146.665 175.961 146.591 176.281 146.591C176.748 146.591 177.12 146.746 177.395 147.056C177.67 147.364 177.807 147.781 177.807 148.308C177.807 148.836 177.664 149.254 177.377 149.559C177.093 149.862 176.694 150.014 176.182 150.014C175.728 150.014 175.358 149.888 175.072 149.637C174.785 149.385 174.621 149.037 174.582 148.593H175.198C175.238 148.887 175.343 149.109 175.512 149.259C175.681 149.408 175.905 149.482 176.182 149.482C176.485 149.482 176.723 149.378 176.894 149.171C177.068 148.965 177.155 148.679 177.155 148.315C177.155 147.972 177.061 147.697 176.873 147.49C176.687 147.281 176.439 147.176 176.129 147.176C175.845 147.176 175.621 147.238 175.459 147.363L175.287 147.504L174.765 147.37ZM179.944 148.029H178.223V147.497H179.944V148.029ZM183.074 144.807V145.36H182.954C182.447 145.37 182.042 145.52 181.742 145.812C181.441 146.103 181.267 146.513 181.22 147.042C181.49 146.732 181.859 146.577 182.327 146.577C182.773 146.577 183.129 146.734 183.395 147.049C183.663 147.364 183.797 147.771 183.797 148.269C183.797 148.798 183.652 149.221 183.363 149.538C183.077 149.855 182.691 150.014 182.207 150.014C181.716 150.014 181.317 149.826 181.012 149.45C180.706 149.071 180.554 148.585 180.554 147.99V147.74C180.554 146.795 180.754 146.074 181.156 145.575C181.561 145.075 182.161 144.819 182.958 144.807H183.074ZM182.218 147.12C181.994 147.12 181.789 147.187 181.601 147.321C181.413 147.454 181.282 147.623 181.209 147.825V148.064C181.209 148.487 181.304 148.828 181.495 149.087C181.685 149.345 181.923 149.475 182.207 149.475C182.501 149.475 182.731 149.366 182.898 149.15C183.067 148.934 183.152 148.651 183.152 148.301C183.152 147.948 183.066 147.664 182.894 147.447C182.725 147.229 182.5 147.12 182.218 147.12ZM187.322 148.22H188.034V148.752H187.322V149.943H186.667V148.752H184.329V148.368L186.628 144.81H187.322V148.22ZM185.07 148.22H186.667V145.702L186.589 145.843L185.07 148.22Z" fill="#8794BA"/>
<path d="M77.1224 53.0855H74.255L73.6111 54.8717H72.6804L75.2939 48.0277H76.0835L78.7017 54.8717H77.7757L77.1224 53.0855ZM74.5277 52.3428H76.8544L75.6887 49.1418L74.5277 52.3428ZM79.2799 52.2864C79.2799 51.4936 79.4632 50.8637 79.8299 50.3968C80.1965 49.9268 80.6822 49.6917 81.287 49.6917C81.9075 49.6917 82.3916 49.9111 82.7395 50.3498L82.7818 49.7857H83.5762V54.7495C83.5762 55.4076 83.3803 55.9262 82.9886 56.3054C82.6 56.6845 82.0767 56.8741 81.4186 56.8741C81.052 56.8741 80.6932 56.7958 80.3422 56.6391C79.9912 56.4824 79.7233 56.2678 79.5384 55.9951L79.9897 55.4734C80.3626 55.934 80.8185 56.1643 81.3575 56.1643C81.7806 56.1643 82.1096 56.0453 82.3446 55.8071C82.5828 55.5689 82.7019 55.2336 82.7019 54.8012V54.364C82.354 54.7652 81.8793 54.9657 81.2776 54.9657C80.6822 54.9657 80.1996 54.726 79.8299 54.2465C79.4632 53.7671 79.2799 53.1137 79.2799 52.2864ZM80.1542 52.3851C80.1542 52.9586 80.2717 53.4098 80.5067 53.7389C80.7418 54.0648 81.0708 54.2277 81.4938 54.2277C82.0422 54.2277 82.4449 53.9786 82.7019 53.4803V51.1583C82.4355 50.6726 82.036 50.4297 81.5032 50.4297C81.0802 50.4297 80.7496 50.5942 80.5114 50.9233C80.2733 51.2523 80.1542 51.7396 80.1542 52.3851ZM87.0029 54.9657C86.3134 54.9657 85.7525 54.7401 85.3201 54.2888C84.8876 53.8345 84.6714 53.2281 84.6714 52.4697V52.3099C84.6714 51.8054 84.767 51.3557 84.9581 50.9609C85.1524 50.5629 85.4219 50.2527 85.7666 50.0302C86.1145 49.8045 86.4905 49.6917 86.8947 49.6917C87.5559 49.6917 88.0699 49.9095 88.4365 50.3451C88.8032 50.7807 88.9865 51.4043 88.9865 52.2159V52.5778H85.541C85.5535 53.0792 85.6992 53.4851 85.9781 53.7953C86.2602 54.1024 86.6174 54.2559 87.0499 54.2559C87.357 54.2559 87.6171 54.1933 87.8301 54.0679C88.0432 53.9426 88.2297 53.7765 88.3895 53.5697L88.9207 53.9833C88.4945 54.6382 87.8552 54.9657 87.0029 54.9657ZM86.8947 50.4062C86.5438 50.4062 86.2492 50.5347 86.011 50.7917C85.7729 51.0455 85.6256 51.4027 85.5692 51.8634H88.1169V51.7976C88.0918 51.3557 87.9727 51.0141 87.7596 50.7728C87.5465 50.5284 87.2582 50.4062 86.8947 50.4062ZM92.9584 53.5227C92.9584 53.2876 92.8691 53.1059 92.6905 52.9774C92.515 52.8458 92.2063 52.733 91.7645 52.639C91.3258 52.5449 90.9764 52.4321 90.7163 52.3005C90.4593 52.1689 90.2681 52.0122 90.1428 51.8305C90.0206 51.6487 89.9595 51.4325 89.9595 51.1818C89.9595 50.765 90.135 50.4125 90.4859 50.1242C90.84 49.8359 91.2913 49.6917 91.8397 49.6917C92.4163 49.6917 92.8832 49.8406 93.2404 50.1383C93.6008 50.436 93.781 50.8167 93.781 51.2805H92.9067C92.9067 51.0423 92.8049 50.8371 92.6012 50.6647C92.4006 50.4924 92.1468 50.4062 91.8397 50.4062C91.5232 50.4062 91.2756 50.4752 91.097 50.613C90.9184 50.7509 90.8291 50.9311 90.8291 51.1536C90.8291 51.3635 90.9121 51.5218 91.0782 51.6283C91.2443 51.7349 91.5436 51.8367 91.976 51.9339C92.4116 52.031 92.7641 52.147 93.0336 52.2817C93.3031 52.4165 93.5021 52.5794 93.6306 52.7706C93.7622 52.9586 93.828 53.1889 93.828 53.4615C93.828 53.9159 93.6463 54.281 93.2827 54.5568C92.9192 54.8294 92.4476 54.9657 91.8679 54.9657C91.4605 54.9657 91.1001 54.8936 90.7868 54.7495C90.4734 54.6053 90.2274 54.4048 90.0488 54.1478C89.8733 53.8877 89.7856 53.6073 89.7856 53.3064H90.6552C90.6708 53.5979 90.7868 53.8298 91.003 54.0021C91.2224 54.1713 91.5106 54.2559 91.8679 54.2559C92.1969 54.2559 92.4602 54.1901 92.6576 54.0585C92.8581 53.9238 92.9584 53.7451 92.9584 53.5227Z" fill="#8794BA"/>
<defs>
<filter id="filter0_d_535_1066" x="0.618341" y="0.843195" width="435.763" height="321.447" filterUnits="userSpaceOnUse" color-interpolation-filters="sRGB">
<feFlood flood-opacity="0" result="BackgroundImageFix"/>
<feColorMatrix in="SourceAlpha" type="matrix" values="0 0 0 0 0 0 0 0 0 0 0 0 0 0 0 0 0 0 127 0" result="hardAlpha"/>
<feMorphology radius="16.0207" operator="erode" in="SourceAlpha" result="effect1_dropShadow_535_1066"/>
<feOffset dy="19.2249"/>
<feGaussianBlur stdDeviation="26.7012"/>
<feColorMatrix type="matrix" values="0 0 0 0 0.0996452 0 0 0 0 0.164326 0 0 0 0 0.350284 0 0 0 0.2 0"/>
<feBlend mode="normal" in2="BackgroundImageFix" result="effect1_dropShadow_535_1066"/>
<feBlend mode="normal" in="SourceGraphic" in2="effect1_dropShadow_535_1066" result="shape"/>
</filter>
</defs>
</svg>
