<svg width="139" height="30" viewBox="0 0 139 30" fill="none" xmlns="http://www.w3.org/2000/svg">
<path d="M27.3812 6.5296C24.6786 2.58665 20.1414 0 15 0C6.71573 0 0 6.71572 0 15C0 16.2052 0.14215 17.3773 0.410585 18.5003L8.04917 10.8617C8.78141 10.1294 9.96859 10.1294 10.7008 10.8617L16.875 17.0358L27.3812 6.5296Z" fill="#8794BA"/>
<path d="M29.1641 10.0501L18.2008 21.0133C17.4686 21.7456 16.2814 21.7456 15.5492 21.0133L9.375 14.8392L1.90063 22.3135C4.46662 26.8997 9.37125 30 15 30C23.2843 30 30 23.2843 30 15C30 13.2655 29.7056 11.5998 29.1641 10.0501Z" fill="#8794BA"/>
<path d="M47.1062 18.7921H43.2016L42.5197 21.0001H39.4756L43.8104 9.18073H46.4893L50.8566 21.0001H47.7962L47.1062 18.7921ZM43.8835 16.5922H46.4243L45.1498 12.4927L43.8835 16.5922Z" fill="#8794BA"/>
<path d="M61.5963 21.0001H58.7632L54.5745 13.6454V21.0001H51.7252V9.18073H54.5745L58.7551 16.5353V9.18073H61.5963V21.0001Z" fill="#8794BA"/>
<path d="M70.2578 18.7921H66.3532L65.6713 21.0001H62.6272L66.962 9.18073H69.6409L74.0082 21.0001H70.9478L70.2578 18.7921ZM67.0351 16.5922H69.5759L68.3015 12.4927L67.0351 16.5922Z" fill="#8794BA"/>
<path d="M77.7261 18.8083H82.686V21.0001H74.8768V9.18073H77.7261V18.8083Z" fill="#8794BA"/>
<path d="M85.9412 14.3111L88.1167 9.18073H91.1933L87.3861 16.7545V21.0001H84.4962V16.7545L80.6971 9.18073H83.7575L85.9412 14.3111Z" fill="#8794BA"/>
<path d="M101.478 11.3806H97.931V21.0001H95.0817V11.3806H91.5992V9.18073H101.478V11.3806Z" fill="#8794BA"/>
<path d="M105.724 21.0001H102.883V9.18073H105.724V21.0001Z" fill="#8794BA"/>
<path d="M117.267 16.998C117.229 17.8206 117.008 18.5485 116.602 19.1817C116.196 19.8095 115.625 20.2965 114.889 20.6429C114.158 20.9892 113.322 21.1624 112.38 21.1624C110.827 21.1624 109.604 20.6564 108.711 19.6444C107.818 18.6324 107.372 17.2037 107.372 15.3583V14.7738C107.372 13.6157 107.572 12.6037 107.973 11.7378C108.378 10.8665 108.96 10.1954 109.718 9.72461C110.475 9.24837 111.352 9.01025 112.348 9.01025C113.782 9.01025 114.935 9.38908 115.806 10.1467C116.677 10.899 117.173 11.938 117.292 13.2639H114.45C114.429 12.5441 114.247 12.0273 113.907 11.7134C113.566 11.3996 113.046 11.2426 112.348 11.2426C111.639 11.2426 111.119 11.5078 110.789 12.0381C110.459 12.5685 110.286 13.4154 110.27 14.579V15.4151C110.27 16.676 110.427 17.5771 110.741 18.1183C111.06 18.6595 111.607 18.9301 112.38 18.9301C113.035 18.9301 113.536 18.7758 113.882 18.4673C114.229 18.1589 114.413 17.6691 114.434 16.998H117.267Z" fill="#8794BA"/>
<path d="M124.711 17.8585C124.711 17.4418 124.562 17.1171 124.265 16.8844C123.972 16.6517 123.456 16.4109 122.714 16.1619C121.973 15.913 121.367 15.6722 120.896 15.4395C119.364 14.6872 118.599 13.6536 118.599 12.3385C118.599 11.6837 118.788 11.1073 119.167 10.6094C119.551 10.1061 120.092 9.71649 120.79 9.44049C121.488 9.15908 122.273 9.01837 123.144 9.01837C123.994 9.01837 124.754 9.1699 125.426 9.47296C126.102 9.77602 126.627 10.209 127 10.7718C127.374 11.3292 127.56 11.9678 127.56 12.6876H124.719C124.719 12.2059 124.57 11.8325 124.273 11.5673C123.981 11.3021 123.583 11.1696 123.08 11.1696C122.571 11.1696 122.168 11.2832 121.87 11.5105C121.578 11.7324 121.432 12.0165 121.432 12.3629C121.432 12.6659 121.594 12.9419 121.919 13.1909C122.243 13.4344 122.814 13.6887 123.632 13.9539C124.449 14.2137 125.12 14.4951 125.645 14.7982C126.922 15.5342 127.56 16.5489 127.56 17.8423C127.56 18.8759 127.171 19.6877 126.392 20.2776C125.612 20.8675 124.543 21.1624 123.185 21.1624C122.227 21.1624 121.359 20.9919 120.579 20.651C119.805 20.3046 119.221 19.8338 118.826 19.2385C118.436 18.6378 118.241 17.9478 118.241 17.1685H121.099C121.099 17.8017 121.261 18.2698 121.586 18.5729C121.916 18.8705 122.449 19.0193 123.185 19.0193C123.656 19.0193 124.027 18.9192 124.297 18.719C124.573 18.5133 124.711 18.2265 124.711 17.8585Z" fill="#8794BA"/>
</svg>
