<svg width="671" height="480" viewBox="0 0 671 480" fill="none" xmlns="http://www.w3.org/2000/svg">
<g filter="url(#filter0_d_535_1644)">
<rect x="35.8706" y="17" width="600" height="410" rx="30" fill="white"/>
</g>
<rect x="105.871" y="119" width="66" height="52" fill="white"/>
<rect x="171.871" y="119" width="66" height="52" fill="white"/>
<path d="M204.987 149H203.897V141.775L201.712 142.578V141.594L204.817 140.428H204.987V149Z" fill="#172755"/>
<rect x="237.871" y="119" width="66" height="52" fill="white"/>
<path d="M273.015 149H267.425V148.221L270.378 144.939C270.815 144.443 271.116 144.041 271.28 143.732C271.448 143.42 271.532 143.098 271.532 142.766C271.532 142.32 271.397 141.955 271.128 141.67C270.858 141.385 270.499 141.242 270.05 141.242C269.511 141.242 269.091 141.396 268.79 141.705C268.493 142.01 268.345 142.436 268.345 142.982H267.261C267.261 142.197 267.513 141.562 268.017 141.078C268.524 140.594 269.202 140.352 270.05 140.352C270.843 140.352 271.47 140.561 271.931 140.979C272.392 141.393 272.622 141.945 272.622 142.637C272.622 143.477 272.087 144.477 271.017 145.637L268.731 148.115H273.015V149Z" fill="#172755"/>
<rect x="303.871" y="119" width="66" height="52" fill="white"/>
<path d="M335.001 144.207H335.815C336.327 144.199 336.729 144.064 337.022 143.803C337.315 143.541 337.462 143.188 337.462 142.742C337.462 141.742 336.964 141.242 335.968 141.242C335.499 141.242 335.124 141.377 334.843 141.646C334.565 141.912 334.427 142.266 334.427 142.707H333.343C333.343 142.031 333.589 141.471 334.081 141.025C334.577 140.576 335.206 140.352 335.968 140.352C336.772 140.352 337.403 140.564 337.86 140.99C338.317 141.416 338.546 142.008 338.546 142.766C338.546 143.137 338.425 143.496 338.183 143.844C337.944 144.191 337.618 144.451 337.204 144.623C337.673 144.771 338.034 145.018 338.288 145.361C338.546 145.705 338.675 146.125 338.675 146.621C338.675 147.387 338.425 147.994 337.925 148.443C337.425 148.893 336.774 149.117 335.974 149.117C335.173 149.117 334.521 148.9 334.017 148.467C333.517 148.033 333.267 147.461 333.267 146.75H334.356C334.356 147.199 334.503 147.559 334.796 147.828C335.089 148.098 335.481 148.232 335.974 148.232C336.497 148.232 336.897 148.096 337.175 147.822C337.452 147.549 337.591 147.156 337.591 146.645C337.591 146.148 337.438 145.768 337.134 145.502C336.829 145.236 336.39 145.1 335.815 145.092H335.001V144.207Z" fill="#172755"/>
<rect x="369.871" y="119" width="66" height="52" fill="white"/>
<path d="M404.001 146.135H405.185V147.02H404.001V149H402.911V147.02H399.026V146.381L402.847 140.469H404.001V146.135ZM400.257 146.135H402.911V141.951L402.782 142.186L400.257 146.135Z" fill="#172755"/>
<rect x="435.871" y="119" width="66" height="52" fill="white"/>
<path d="M465.923 144.723L466.356 140.469H470.728V141.471H467.276L467.019 143.797C467.437 143.551 467.911 143.428 468.442 143.428C469.22 143.428 469.837 143.686 470.294 144.201C470.751 144.713 470.979 145.406 470.979 146.281C470.979 147.16 470.741 147.854 470.265 148.361C469.792 148.865 469.13 149.117 468.278 149.117C467.524 149.117 466.909 148.908 466.433 148.49C465.956 148.072 465.685 147.494 465.618 146.756H466.644C466.71 147.244 466.884 147.613 467.165 147.863C467.446 148.109 467.817 148.232 468.278 148.232C468.782 148.232 469.177 148.061 469.462 147.717C469.751 147.373 469.896 146.898 469.896 146.293C469.896 145.723 469.739 145.266 469.427 144.922C469.118 144.574 468.706 144.4 468.19 144.4C467.718 144.4 467.347 144.504 467.077 144.711L466.79 144.945L465.923 144.723Z" fill="#172755"/>
<rect x="501.871" y="119" width="66" height="52" fill="white"/>
<path d="M535.679 140.463V141.383H535.479C534.636 141.398 533.964 141.648 533.464 142.133C532.964 142.617 532.675 143.299 532.597 144.178C533.046 143.662 533.659 143.404 534.437 143.404C535.179 143.404 535.771 143.666 536.212 144.189C536.657 144.713 536.88 145.389 536.88 146.217C536.88 147.096 536.64 147.799 536.159 148.326C535.683 148.854 535.042 149.117 534.237 149.117C533.421 149.117 532.759 148.805 532.251 148.18C531.743 147.551 531.489 146.742 531.489 145.754V145.338C531.489 143.768 531.823 142.568 532.491 141.74C533.163 140.908 534.161 140.482 535.485 140.463H535.679ZM534.255 144.307C533.884 144.307 533.542 144.418 533.229 144.641C532.917 144.863 532.7 145.143 532.579 145.479V145.877C532.579 146.58 532.737 147.146 533.054 147.576C533.37 148.006 533.765 148.221 534.237 148.221C534.726 148.221 535.108 148.041 535.386 147.682C535.667 147.322 535.808 146.852 535.808 146.27C535.808 145.684 535.665 145.211 535.38 144.852C535.099 144.488 534.724 144.307 534.255 144.307Z" fill="#172755"/>
<rect x="105.871" y="171" width="66" height="52" fill="white"/>
<path d="M140.933 193.078L137.399 201H136.263L139.784 193.359H135.167V192.469H140.933V193.078Z" fill="#172755"/>
<rect x="171.871" y="171" width="66" height="52" fill="white"/>
<circle cx="204.371" cy="196.5" r="19.5" fill="#0088F0"/>
<path d="M206.599 194.695C206.599 195.121 206.485 195.5 206.259 195.832C206.036 196.164 205.733 196.424 205.351 196.611C205.796 196.803 206.147 197.082 206.405 197.449C206.667 197.816 206.798 198.232 206.798 198.697C206.798 199.436 206.548 200.023 206.048 200.461C205.552 200.898 204.897 201.117 204.085 201.117C203.265 201.117 202.606 200.898 202.11 200.461C201.618 200.02 201.372 199.432 201.372 198.697C201.372 198.236 201.497 197.82 201.747 197.449C202.001 197.078 202.351 196.797 202.796 196.605C202.417 196.418 202.118 196.158 201.899 195.826C201.681 195.494 201.571 195.117 201.571 194.695C201.571 193.977 201.802 193.406 202.263 192.984C202.724 192.562 203.331 192.352 204.085 192.352C204.835 192.352 205.44 192.562 205.901 192.984C206.366 193.406 206.599 193.977 206.599 194.695ZM205.714 198.674C205.714 198.197 205.562 197.809 205.257 197.508C204.956 197.207 204.562 197.057 204.073 197.057C203.585 197.057 203.192 197.205 202.896 197.502C202.603 197.799 202.456 198.189 202.456 198.674C202.456 199.158 202.599 199.539 202.884 199.816C203.173 200.094 203.573 200.232 204.085 200.232C204.593 200.232 204.991 200.094 205.28 199.816C205.569 199.535 205.714 199.154 205.714 198.674ZM204.085 193.242C203.659 193.242 203.313 193.375 203.048 193.641C202.786 193.902 202.655 194.26 202.655 194.713C202.655 195.146 202.784 195.498 203.042 195.768C203.304 196.033 203.651 196.166 204.085 196.166C204.519 196.166 204.864 196.033 205.122 195.768C205.384 195.498 205.515 195.146 205.515 194.713C205.515 194.279 205.38 193.926 205.11 193.652C204.841 193.379 204.499 193.242 204.085 193.242Z" fill="#EEEEF7"/>
<rect x="237.871" y="171" width="66" height="52" fill="white"/>
<circle cx="270.371" cy="196.5" r="19.5" fill="#0088F0"/>
<path d="M271.579 197.25C271.353 197.52 271.081 197.736 270.765 197.9C270.452 198.064 270.108 198.146 269.733 198.146C269.241 198.146 268.812 198.025 268.444 197.783C268.081 197.541 267.8 197.201 267.601 196.764C267.401 196.322 267.302 195.836 267.302 195.305C267.302 194.734 267.409 194.221 267.624 193.764C267.843 193.307 268.151 192.957 268.55 192.715C268.948 192.473 269.413 192.352 269.944 192.352C270.788 192.352 271.452 192.668 271.937 193.301C272.425 193.93 272.669 194.789 272.669 195.879V196.195C272.669 197.855 272.341 199.068 271.685 199.834C271.028 200.596 270.038 200.986 268.714 201.006H268.503V200.092H268.731C269.626 200.076 270.313 199.844 270.794 199.395C271.274 198.941 271.536 198.227 271.579 197.25ZM269.909 197.25C270.272 197.25 270.606 197.139 270.911 196.916C271.22 196.693 271.444 196.418 271.585 196.09V195.656C271.585 194.945 271.431 194.367 271.122 193.922C270.813 193.477 270.423 193.254 269.95 193.254C269.474 193.254 269.091 193.438 268.802 193.805C268.513 194.168 268.368 194.648 268.368 195.246C268.368 195.828 268.507 196.309 268.784 196.688C269.065 197.062 269.44 197.25 269.909 197.25Z" fill="#EEEEF7"/>
<rect x="303.871" y="171" width="66" height="52" fill="white"/>
<circle cx="336.371" cy="196.5" r="19.5" fill="#0088F0"/>
<path d="M333.118 201H332.028V193.775L329.843 194.578V193.594L332.948 192.428H333.118V201ZM341.644 197.361C341.644 198.631 341.427 199.574 340.993 200.191C340.56 200.809 339.882 201.117 338.96 201.117C338.05 201.117 337.376 200.816 336.938 200.215C336.501 199.609 336.274 198.707 336.259 197.508V196.061C336.259 194.807 336.476 193.875 336.909 193.266C337.343 192.656 338.022 192.352 338.948 192.352C339.866 192.352 340.542 192.646 340.976 193.236C341.409 193.822 341.632 194.729 341.644 195.955V197.361ZM340.56 195.879C340.56 194.961 340.431 194.293 340.173 193.875C339.915 193.453 339.507 193.242 338.948 193.242C338.394 193.242 337.989 193.451 337.735 193.869C337.481 194.287 337.351 194.93 337.343 195.797V197.531C337.343 198.453 337.476 199.135 337.741 199.576C338.011 200.014 338.417 200.232 338.96 200.232C339.495 200.232 339.892 200.025 340.149 199.611C340.411 199.197 340.548 198.545 340.56 197.654V195.879Z" fill="#EEEEF7"/>
<rect x="369.871" y="171" width="66" height="52" fill="white"/>
<path d="M399.118 201H398.028V193.775L395.843 194.578V193.594L398.948 192.428H399.118V201ZM405.856 201H404.767V193.775L402.581 194.578V193.594L405.687 192.428H405.856V201Z" fill="#172755"/>
<rect x="435.871" y="171" width="66" height="52" fill="white"/>
<path d="M465.118 201H464.028V193.775L461.843 194.578V193.594L464.948 192.428H465.118V201ZM473.884 201H468.294V200.221L471.247 196.939C471.685 196.443 471.985 196.041 472.149 195.732C472.317 195.42 472.401 195.098 472.401 194.766C472.401 194.32 472.267 193.955 471.997 193.67C471.728 193.385 471.368 193.242 470.919 193.242C470.38 193.242 469.96 193.396 469.659 193.705C469.362 194.01 469.214 194.436 469.214 194.982H468.13C468.13 194.197 468.382 193.562 468.886 193.078C469.394 192.594 470.071 192.352 470.919 192.352C471.712 192.352 472.339 192.561 472.8 192.979C473.261 193.393 473.491 193.945 473.491 194.637C473.491 195.477 472.956 196.477 471.886 197.637L469.601 200.115H473.884V201Z" fill="#172755"/>
<rect x="501.871" y="171" width="66" height="52" fill="white"/>
<path d="M531.118 201H530.028V193.775L527.843 194.578V193.594L530.948 192.428H531.118V201ZM535.87 196.207H536.685C537.196 196.199 537.599 196.064 537.892 195.803C538.185 195.541 538.331 195.188 538.331 194.742C538.331 193.742 537.833 193.242 536.837 193.242C536.368 193.242 535.993 193.377 535.712 193.646C535.435 193.912 535.296 194.266 535.296 194.707H534.212C534.212 194.031 534.458 193.471 534.95 193.025C535.446 192.576 536.075 192.352 536.837 192.352C537.642 192.352 538.272 192.564 538.729 192.99C539.187 193.416 539.415 194.008 539.415 194.766C539.415 195.137 539.294 195.496 539.052 195.844C538.813 196.191 538.487 196.451 538.073 196.623C538.542 196.771 538.903 197.018 539.157 197.361C539.415 197.705 539.544 198.125 539.544 198.621C539.544 199.387 539.294 199.994 538.794 200.443C538.294 200.893 537.644 201.117 536.843 201.117C536.042 201.117 535.39 200.9 534.886 200.467C534.386 200.033 534.136 199.461 534.136 198.75H535.226C535.226 199.199 535.372 199.559 535.665 199.828C535.958 200.098 536.351 200.232 536.843 200.232C537.366 200.232 537.767 200.096 538.044 199.822C538.321 199.549 538.46 199.156 538.46 198.645C538.46 198.148 538.308 197.768 538.003 197.502C537.698 197.236 537.259 197.1 536.685 197.092H535.87V196.207Z" fill="#172755"/>
<rect x="105.871" y="223" width="66" height="52" fill="white"/>
<path d="M135.118 253H134.028V245.775L131.843 246.578V245.594L134.948 244.428H135.118V253ZM142.87 250.135H144.054V251.02H142.87V253H141.78V251.02H137.896V250.381L141.716 244.469H142.87V250.135ZM139.126 250.135H141.78V245.951L141.651 246.186L139.126 250.135Z" fill="#172755"/>
<rect x="171.871" y="223" width="66" height="52" fill="white"/>
<path d="M201.118 253H200.028V245.775L197.843 246.578V245.594L200.948 244.428H201.118V253ZM204.792 248.723L205.226 244.469H209.597V245.471H206.146L205.888 247.797C206.306 247.551 206.78 247.428 207.312 247.428C208.089 247.428 208.706 247.686 209.163 248.201C209.62 248.713 209.849 249.406 209.849 250.281C209.849 251.16 209.61 251.854 209.134 252.361C208.661 252.865 207.999 253.117 207.147 253.117C206.394 253.117 205.778 252.908 205.302 252.49C204.825 252.072 204.554 251.494 204.487 250.756H205.513C205.579 251.244 205.753 251.613 206.034 251.863C206.315 252.109 206.687 252.232 207.147 252.232C207.651 252.232 208.046 252.061 208.331 251.717C208.62 251.373 208.765 250.898 208.765 250.293C208.765 249.723 208.608 249.266 208.296 248.922C207.987 248.574 207.575 248.4 207.06 248.4C206.587 248.4 206.216 248.504 205.946 248.711L205.659 248.945L204.792 248.723Z" fill="#172755"/>
<rect x="237.871" y="223" width="66" height="52" fill="white"/>
<path d="M267.118 253H266.028V245.775L263.843 246.578V245.594L266.948 244.428H267.118V253ZM274.548 244.463V245.383H274.349C273.505 245.398 272.833 245.648 272.333 246.133C271.833 246.617 271.544 247.299 271.466 248.178C271.915 247.662 272.528 247.404 273.306 247.404C274.048 247.404 274.64 247.666 275.081 248.189C275.526 248.713 275.749 249.389 275.749 250.217C275.749 251.096 275.509 251.799 275.028 252.326C274.552 252.854 273.911 253.117 273.106 253.117C272.29 253.117 271.628 252.805 271.12 252.18C270.612 251.551 270.358 250.742 270.358 249.754V249.338C270.358 247.768 270.692 246.568 271.36 245.74C272.032 244.908 273.03 244.482 274.354 244.463H274.548ZM273.124 248.307C272.753 248.307 272.411 248.418 272.099 248.641C271.786 248.863 271.569 249.143 271.448 249.479V249.877C271.448 250.58 271.606 251.146 271.923 251.576C272.239 252.006 272.634 252.221 273.106 252.221C273.595 252.221 273.978 252.041 274.255 251.682C274.536 251.322 274.677 250.852 274.677 250.27C274.677 249.684 274.534 249.211 274.249 248.852C273.968 248.488 273.593 248.307 273.124 248.307Z" fill="#172755"/>
<rect x="303.871" y="223" width="66" height="52" fill="white"/>
<path d="M333.118 253H332.028V245.775L329.843 246.578V245.594L332.948 244.428H333.118V253ZM341.802 245.078L338.269 253H337.132L340.653 245.359H336.036V244.469H341.802V245.078Z" fill="#172755"/>
<rect x="369.871" y="223" width="66" height="52" fill="white"/>
<circle cx="402.371" cy="248.5" r="19.5" fill="#EF2A82"/>
<path d="M399.118 253H398.028V245.775L395.843 246.578V245.594L398.948 244.428H399.118V253ZM407.468 246.695C407.468 247.121 407.354 247.5 407.128 247.832C406.905 248.164 406.603 248.424 406.22 248.611C406.665 248.803 407.017 249.082 407.274 249.449C407.536 249.816 407.667 250.232 407.667 250.697C407.667 251.436 407.417 252.023 406.917 252.461C406.421 252.898 405.767 253.117 404.954 253.117C404.134 253.117 403.476 252.898 402.979 252.461C402.487 252.02 402.241 251.432 402.241 250.697C402.241 250.236 402.366 249.82 402.616 249.449C402.87 249.078 403.22 248.797 403.665 248.605C403.286 248.418 402.987 248.158 402.769 247.826C402.55 247.494 402.44 247.117 402.44 246.695C402.44 245.977 402.671 245.406 403.132 244.984C403.593 244.562 404.2 244.352 404.954 244.352C405.704 244.352 406.31 244.562 406.771 244.984C407.235 245.406 407.468 245.977 407.468 246.695ZM406.583 250.674C406.583 250.197 406.431 249.809 406.126 249.508C405.825 249.207 405.431 249.057 404.942 249.057C404.454 249.057 404.062 249.205 403.765 249.502C403.472 249.799 403.325 250.189 403.325 250.674C403.325 251.158 403.468 251.539 403.753 251.816C404.042 252.094 404.442 252.232 404.954 252.232C405.462 252.232 405.86 252.094 406.149 251.816C406.438 251.535 406.583 251.154 406.583 250.674ZM404.954 245.242C404.528 245.242 404.183 245.375 403.917 245.641C403.655 245.902 403.524 246.26 403.524 246.713C403.524 247.146 403.653 247.498 403.911 247.768C404.173 248.033 404.521 248.166 404.954 248.166C405.388 248.166 405.733 248.033 405.991 247.768C406.253 247.498 406.384 247.146 406.384 246.713C406.384 246.279 406.249 245.926 405.979 245.652C405.71 245.379 405.368 245.242 404.954 245.242Z" fill="#EEEEF7"/>
<rect x="435.871" y="223" width="66" height="52" fill="white"/>
<path d="M465.118 253H464.028V245.775L461.843 246.578V245.594L464.948 244.428H465.118V253ZM472.448 249.25C472.222 249.52 471.95 249.736 471.634 249.9C471.321 250.064 470.978 250.146 470.603 250.146C470.11 250.146 469.681 250.025 469.313 249.783C468.95 249.541 468.669 249.201 468.47 248.764C468.271 248.322 468.171 247.836 468.171 247.305C468.171 246.734 468.278 246.221 468.493 245.764C468.712 245.307 469.021 244.957 469.419 244.715C469.817 244.473 470.282 244.352 470.813 244.352C471.657 244.352 472.321 244.668 472.806 245.301C473.294 245.93 473.538 246.789 473.538 247.879V248.195C473.538 249.855 473.21 251.068 472.554 251.834C471.897 252.596 470.907 252.986 469.583 253.006H469.372V252.092H469.601C470.495 252.076 471.183 251.844 471.663 251.395C472.144 250.941 472.405 250.227 472.448 249.25ZM470.778 249.25C471.142 249.25 471.476 249.139 471.78 248.916C472.089 248.693 472.313 248.418 472.454 248.09V247.656C472.454 246.945 472.3 246.367 471.991 245.922C471.683 245.477 471.292 245.254 470.819 245.254C470.343 245.254 469.96 245.438 469.671 245.805C469.382 246.168 469.237 246.648 469.237 247.246C469.237 247.828 469.376 248.309 469.653 248.688C469.935 249.062 470.31 249.25 470.778 249.25Z" fill="#172755"/>
<rect x="501.871" y="223" width="66" height="52" fill="white"/>
<path d="M533.146 253H527.556V252.221L530.509 248.939C530.946 248.443 531.247 248.041 531.411 247.732C531.579 247.42 531.663 247.098 531.663 246.766C531.663 246.32 531.528 245.955 531.259 245.67C530.989 245.385 530.63 245.242 530.181 245.242C529.642 245.242 529.222 245.396 528.921 245.705C528.624 246.01 528.476 246.436 528.476 246.982H527.392C527.392 246.197 527.644 245.562 528.147 245.078C528.655 244.594 529.333 244.352 530.181 244.352C530.974 244.352 531.601 244.561 532.062 244.979C532.522 245.393 532.753 245.945 532.753 246.637C532.753 247.477 532.218 248.477 531.147 249.637L528.862 252.115H533.146V253ZM539.644 249.361C539.644 250.631 539.427 251.574 538.993 252.191C538.56 252.809 537.882 253.117 536.96 253.117C536.05 253.117 535.376 252.816 534.938 252.215C534.501 251.609 534.274 250.707 534.259 249.508V248.061C534.259 246.807 534.476 245.875 534.909 245.266C535.343 244.656 536.022 244.352 536.948 244.352C537.866 244.352 538.542 244.646 538.976 245.236C539.409 245.822 539.632 246.729 539.644 247.955V249.361ZM538.56 247.879C538.56 246.961 538.431 246.293 538.173 245.875C537.915 245.453 537.507 245.242 536.948 245.242C536.394 245.242 535.989 245.451 535.735 245.869C535.481 246.287 535.351 246.93 535.343 247.797V249.531C535.343 250.453 535.476 251.135 535.741 251.576C536.011 252.014 536.417 252.232 536.96 252.232C537.495 252.232 537.892 252.025 538.149 251.611C538.411 251.197 538.548 250.545 538.56 249.654V247.879Z" fill="#172755"/>
<rect x="105.871" y="275" width="66" height="52" fill="white"/>
<path d="M137.146 305H131.556V304.221L134.509 300.939C134.946 300.443 135.247 300.041 135.411 299.732C135.579 299.42 135.663 299.098 135.663 298.766C135.663 298.32 135.528 297.955 135.259 297.67C134.989 297.385 134.63 297.242 134.181 297.242C133.642 297.242 133.222 297.396 132.921 297.705C132.624 298.01 132.476 298.436 132.476 298.982H131.392C131.392 298.197 131.644 297.562 132.147 297.078C132.655 296.594 133.333 296.352 134.181 296.352C134.974 296.352 135.601 296.561 136.062 296.979C136.522 297.393 136.753 297.945 136.753 298.637C136.753 299.477 136.218 300.477 135.147 301.637L132.862 304.115H137.146V305ZM141.856 305H140.767V297.775L138.581 298.578V297.594L141.687 296.428H141.856V305Z" fill="#172755"/>
<rect x="171.871" y="275" width="66" height="52" fill="white"/>
<path d="M203.146 305H197.556V304.221L200.509 300.939C200.946 300.443 201.247 300.041 201.411 299.732C201.579 299.42 201.663 299.098 201.663 298.766C201.663 298.32 201.528 297.955 201.259 297.67C200.989 297.385 200.63 297.242 200.181 297.242C199.642 297.242 199.222 297.396 198.921 297.705C198.624 298.01 198.476 298.436 198.476 298.982H197.392C197.392 298.197 197.644 297.562 198.147 297.078C198.655 296.594 199.333 296.352 200.181 296.352C200.974 296.352 201.601 296.561 202.062 296.979C202.522 297.393 202.753 297.945 202.753 298.637C202.753 299.477 202.218 300.477 201.147 301.637L198.862 304.115H203.146V305ZM209.884 305H204.294V304.221L207.247 300.939C207.685 300.443 207.985 300.041 208.149 299.732C208.317 299.42 208.401 299.098 208.401 298.766C208.401 298.32 208.267 297.955 207.997 297.67C207.728 297.385 207.368 297.242 206.919 297.242C206.38 297.242 205.96 297.396 205.659 297.705C205.362 298.01 205.214 298.436 205.214 298.982H204.13C204.13 298.197 204.382 297.562 204.886 297.078C205.394 296.594 206.071 296.352 206.919 296.352C207.712 296.352 208.339 296.561 208.8 296.979C209.261 297.393 209.491 297.945 209.491 298.637C209.491 299.477 208.956 300.477 207.886 301.637L205.601 304.115H209.884V305Z" fill="#172755"/>
<rect x="237.871" y="275" width="66" height="52" fill="white"/>
<path d="M269.146 305H263.556V304.221L266.509 300.939C266.946 300.443 267.247 300.041 267.411 299.732C267.579 299.42 267.663 299.098 267.663 298.766C267.663 298.32 267.528 297.955 267.259 297.67C266.989 297.385 266.63 297.242 266.181 297.242C265.642 297.242 265.222 297.396 264.921 297.705C264.624 298.01 264.476 298.436 264.476 298.982H263.392C263.392 298.197 263.644 297.562 264.147 297.078C264.655 296.594 265.333 296.352 266.181 296.352C266.974 296.352 267.601 296.561 268.062 296.979C268.522 297.393 268.753 297.945 268.753 298.637C268.753 299.477 268.218 300.477 267.147 301.637L264.862 304.115H269.146V305ZM271.87 300.207H272.685C273.196 300.199 273.599 300.064 273.892 299.803C274.185 299.541 274.331 299.188 274.331 298.742C274.331 297.742 273.833 297.242 272.837 297.242C272.368 297.242 271.993 297.377 271.712 297.646C271.435 297.912 271.296 298.266 271.296 298.707H270.212C270.212 298.031 270.458 297.471 270.95 297.025C271.446 296.576 272.075 296.352 272.837 296.352C273.642 296.352 274.272 296.564 274.729 296.99C275.187 297.416 275.415 298.008 275.415 298.766C275.415 299.137 275.294 299.496 275.052 299.844C274.813 300.191 274.487 300.451 274.073 300.623C274.542 300.771 274.903 301.018 275.157 301.361C275.415 301.705 275.544 302.125 275.544 302.621C275.544 303.387 275.294 303.994 274.794 304.443C274.294 304.893 273.644 305.117 272.843 305.117C272.042 305.117 271.39 304.9 270.886 304.467C270.386 304.033 270.136 303.461 270.136 302.75H271.226C271.226 303.199 271.372 303.559 271.665 303.828C271.958 304.098 272.351 304.232 272.843 304.232C273.366 304.232 273.767 304.096 274.044 303.822C274.321 303.549 274.46 303.156 274.46 302.645C274.46 302.148 274.308 301.768 274.003 301.502C273.698 301.236 273.259 301.1 272.685 301.092H271.87V300.207Z" fill="#172755"/>
<rect x="303.871" y="275" width="66" height="52" fill="white"/>
<path d="M335.146 305H329.556V304.221L332.509 300.939C332.946 300.443 333.247 300.041 333.411 299.732C333.579 299.42 333.663 299.098 333.663 298.766C333.663 298.32 333.528 297.955 333.259 297.67C332.989 297.385 332.63 297.242 332.181 297.242C331.642 297.242 331.222 297.396 330.921 297.705C330.624 298.01 330.476 298.436 330.476 298.982H329.392C329.392 298.197 329.644 297.562 330.147 297.078C330.655 296.594 331.333 296.352 332.181 296.352C332.974 296.352 333.601 296.561 334.062 296.979C334.522 297.393 334.753 297.945 334.753 298.637C334.753 299.477 334.218 300.477 333.147 301.637L330.862 304.115H335.146V305ZM340.87 302.135H342.054V303.02H340.87V305H339.78V303.02H335.896V302.381L339.716 296.469H340.87V302.135ZM337.126 302.135H339.78V297.951L339.651 298.186L337.126 302.135Z" fill="#172755"/>
<rect x="369.871" y="275" width="66" height="52" fill="white"/>
<path d="M401.146 305H395.556V304.221L398.509 300.939C398.946 300.443 399.247 300.041 399.411 299.732C399.579 299.42 399.663 299.098 399.663 298.766C399.663 298.32 399.528 297.955 399.259 297.67C398.989 297.385 398.63 297.242 398.181 297.242C397.642 297.242 397.222 297.396 396.921 297.705C396.624 298.01 396.476 298.436 396.476 298.982H395.392C395.392 298.197 395.644 297.562 396.147 297.078C396.655 296.594 397.333 296.352 398.181 296.352C398.974 296.352 399.601 296.561 400.062 296.979C400.522 297.393 400.753 297.945 400.753 298.637C400.753 299.477 400.218 300.477 399.147 301.637L396.862 304.115H401.146V305ZM402.792 300.723L403.226 296.469H407.597V297.471H404.146L403.888 299.797C404.306 299.551 404.78 299.428 405.312 299.428C406.089 299.428 406.706 299.686 407.163 300.201C407.62 300.713 407.849 301.406 407.849 302.281C407.849 303.16 407.61 303.854 407.134 304.361C406.661 304.865 405.999 305.117 405.147 305.117C404.394 305.117 403.778 304.908 403.302 304.49C402.825 304.072 402.554 303.494 402.487 302.756H403.513C403.579 303.244 403.753 303.613 404.034 303.863C404.315 304.109 404.687 304.232 405.147 304.232C405.651 304.232 406.046 304.061 406.331 303.717C406.62 303.373 406.765 302.898 406.765 302.293C406.765 301.723 406.608 301.266 406.296 300.922C405.987 300.574 405.575 300.4 405.06 300.4C404.587 300.4 404.216 300.504 403.946 300.711L403.659 300.945L402.792 300.723Z" fill="#172755"/>
<rect x="435.871" y="275" width="66" height="52" fill="white"/>
<path d="M467.146 305H461.556V304.221L464.509 300.939C464.946 300.443 465.247 300.041 465.411 299.732C465.579 299.42 465.663 299.098 465.663 298.766C465.663 298.32 465.528 297.955 465.259 297.67C464.989 297.385 464.63 297.242 464.181 297.242C463.642 297.242 463.222 297.396 462.921 297.705C462.624 298.01 462.476 298.436 462.476 298.982H461.392C461.392 298.197 461.644 297.562 462.147 297.078C462.655 296.594 463.333 296.352 464.181 296.352C464.974 296.352 465.601 296.561 466.062 296.979C466.522 297.393 466.753 297.945 466.753 298.637C466.753 299.477 466.218 300.477 465.147 301.637L462.862 304.115H467.146V305ZM472.548 296.463V297.383H472.349C471.505 297.398 470.833 297.648 470.333 298.133C469.833 298.617 469.544 299.299 469.466 300.178C469.915 299.662 470.528 299.404 471.306 299.404C472.048 299.404 472.64 299.666 473.081 300.189C473.526 300.713 473.749 301.389 473.749 302.217C473.749 303.096 473.509 303.799 473.028 304.326C472.552 304.854 471.911 305.117 471.106 305.117C470.29 305.117 469.628 304.805 469.12 304.18C468.612 303.551 468.358 302.742 468.358 301.754V301.338C468.358 299.768 468.692 298.568 469.36 297.74C470.032 296.908 471.03 296.482 472.354 296.463H472.548ZM471.124 300.307C470.753 300.307 470.411 300.418 470.099 300.641C469.786 300.863 469.569 301.143 469.448 301.479V301.877C469.448 302.58 469.606 303.146 469.923 303.576C470.239 304.006 470.634 304.221 471.106 304.221C471.595 304.221 471.978 304.041 472.255 303.682C472.536 303.322 472.677 302.852 472.677 302.27C472.677 301.684 472.534 301.211 472.249 300.852C471.968 300.488 471.593 300.307 471.124 300.307Z" fill="#172755"/>
<rect x="501.871" y="275" width="66" height="52" fill="white"/>
<path d="M533.146 305H527.556V304.221L530.509 300.939C530.946 300.443 531.247 300.041 531.411 299.732C531.579 299.42 531.663 299.098 531.663 298.766C531.663 298.32 531.528 297.955 531.259 297.67C530.989 297.385 530.63 297.242 530.181 297.242C529.642 297.242 529.222 297.396 528.921 297.705C528.624 298.01 528.476 298.436 528.476 298.982H527.392C527.392 298.197 527.644 297.562 528.147 297.078C528.655 296.594 529.333 296.352 530.181 296.352C530.974 296.352 531.601 296.561 532.062 296.979C532.522 297.393 532.753 297.945 532.753 298.637C532.753 299.477 532.218 300.477 531.147 301.637L528.862 304.115H533.146V305ZM539.802 297.078L536.269 305H535.132L538.653 297.359H534.036V296.469H539.802V297.078Z" fill="#172755"/>
<rect x="105.871" y="327" width="66" height="52" fill="white"/>
<path d="M137.146 357H131.556V356.221L134.509 352.939C134.946 352.443 135.247 352.041 135.411 351.732C135.579 351.42 135.663 351.098 135.663 350.766C135.663 350.32 135.528 349.955 135.259 349.67C134.989 349.385 134.63 349.242 134.181 349.242C133.642 349.242 133.222 349.396 132.921 349.705C132.624 350.01 132.476 350.436 132.476 350.982H131.392C131.392 350.197 131.644 349.562 132.147 349.078C132.655 348.594 133.333 348.352 134.181 348.352C134.974 348.352 135.601 348.561 136.062 348.979C136.522 349.393 136.753 349.945 136.753 350.637C136.753 351.477 136.218 352.477 135.147 353.637L132.862 356.115H137.146V357ZM143.468 350.695C143.468 351.121 143.354 351.5 143.128 351.832C142.905 352.164 142.603 352.424 142.22 352.611C142.665 352.803 143.017 353.082 143.274 353.449C143.536 353.816 143.667 354.232 143.667 354.697C143.667 355.436 143.417 356.023 142.917 356.461C142.421 356.898 141.767 357.117 140.954 357.117C140.134 357.117 139.476 356.898 138.979 356.461C138.487 356.02 138.241 355.432 138.241 354.697C138.241 354.236 138.366 353.82 138.616 353.449C138.87 353.078 139.22 352.797 139.665 352.605C139.286 352.418 138.987 352.158 138.769 351.826C138.55 351.494 138.44 351.117 138.44 350.695C138.44 349.977 138.671 349.406 139.132 348.984C139.593 348.562 140.2 348.352 140.954 348.352C141.704 348.352 142.31 348.562 142.771 348.984C143.235 349.406 143.468 349.977 143.468 350.695ZM142.583 354.674C142.583 354.197 142.431 353.809 142.126 353.508C141.825 353.207 141.431 353.057 140.942 353.057C140.454 353.057 140.062 353.205 139.765 353.502C139.472 353.799 139.325 354.189 139.325 354.674C139.325 355.158 139.468 355.539 139.753 355.816C140.042 356.094 140.442 356.232 140.954 356.232C141.462 356.232 141.86 356.094 142.149 355.816C142.438 355.535 142.583 355.154 142.583 354.674ZM140.954 349.242C140.528 349.242 140.183 349.375 139.917 349.641C139.655 349.902 139.524 350.26 139.524 350.713C139.524 351.146 139.653 351.498 139.911 351.768C140.173 352.033 140.521 352.166 140.954 352.166C141.388 352.166 141.733 352.033 141.991 351.768C142.253 351.498 142.384 351.146 142.384 350.713C142.384 350.279 142.249 349.926 141.979 349.652C141.71 349.379 141.368 349.242 140.954 349.242Z" fill="#172755"/>
<rect x="171.871" y="327" width="66" height="52" fill="white"/>
<path d="M203.146 357H197.556V356.221L200.509 352.939C200.946 352.443 201.247 352.041 201.411 351.732C201.579 351.42 201.663 351.098 201.663 350.766C201.663 350.32 201.528 349.955 201.259 349.67C200.989 349.385 200.63 349.242 200.181 349.242C199.642 349.242 199.222 349.396 198.921 349.705C198.624 350.01 198.476 350.436 198.476 350.982H197.392C197.392 350.197 197.644 349.562 198.147 349.078C198.655 348.594 199.333 348.352 200.181 348.352C200.974 348.352 201.601 348.561 202.062 348.979C202.522 349.393 202.753 349.945 202.753 350.637C202.753 351.477 202.218 352.477 201.147 353.637L198.862 356.115H203.146V357ZM208.448 353.25C208.222 353.52 207.95 353.736 207.634 353.9C207.321 354.064 206.978 354.146 206.603 354.146C206.11 354.146 205.681 354.025 205.313 353.783C204.95 353.541 204.669 353.201 204.47 352.764C204.271 352.322 204.171 351.836 204.171 351.305C204.171 350.734 204.278 350.221 204.493 349.764C204.712 349.307 205.021 348.957 205.419 348.715C205.817 348.473 206.282 348.352 206.813 348.352C207.657 348.352 208.321 348.668 208.806 349.301C209.294 349.93 209.538 350.789 209.538 351.879V352.195C209.538 353.855 209.21 355.068 208.554 355.834C207.897 356.596 206.907 356.986 205.583 357.006H205.372V356.092H205.601C206.495 356.076 207.183 355.844 207.663 355.395C208.144 354.941 208.405 354.227 208.448 353.25ZM206.778 353.25C207.142 353.25 207.476 353.139 207.78 352.916C208.089 352.693 208.313 352.418 208.454 352.09V351.656C208.454 350.945 208.3 350.367 207.991 349.922C207.683 349.477 207.292 349.254 206.819 349.254C206.343 349.254 205.96 349.438 205.671 349.805C205.382 350.168 205.237 350.648 205.237 351.246C205.237 351.828 205.376 352.309 205.653 352.688C205.935 353.062 206.31 353.25 206.778 353.25Z" fill="#172755"/>
<rect x="237.871" y="327" width="66" height="52" fill="white"/>
<path d="M265.132 352.207H265.946C266.458 352.199 266.86 352.064 267.153 351.803C267.446 351.541 267.593 351.188 267.593 350.742C267.593 349.742 267.095 349.242 266.099 349.242C265.63 349.242 265.255 349.377 264.974 349.646C264.696 349.912 264.558 350.266 264.558 350.707H263.474C263.474 350.031 263.72 349.471 264.212 349.025C264.708 348.576 265.337 348.352 266.099 348.352C266.903 348.352 267.534 348.564 267.991 348.99C268.448 349.416 268.677 350.008 268.677 350.766C268.677 351.137 268.556 351.496 268.313 351.844C268.075 352.191 267.749 352.451 267.335 352.623C267.804 352.771 268.165 353.018 268.419 353.361C268.677 353.705 268.806 354.125 268.806 354.621C268.806 355.387 268.556 355.994 268.056 356.443C267.556 356.893 266.905 357.117 266.104 357.117C265.304 357.117 264.651 356.9 264.147 356.467C263.647 356.033 263.397 355.461 263.397 354.75H264.487C264.487 355.199 264.634 355.559 264.927 355.828C265.22 356.098 265.612 356.232 266.104 356.232C266.628 356.232 267.028 356.096 267.306 355.822C267.583 355.549 267.722 355.156 267.722 354.645C267.722 354.148 267.569 353.768 267.265 353.502C266.96 353.236 266.521 353.1 265.946 353.092H265.132V352.207ZM275.644 353.361C275.644 354.631 275.427 355.574 274.993 356.191C274.56 356.809 273.882 357.117 272.96 357.117C272.05 357.117 271.376 356.816 270.938 356.215C270.501 355.609 270.274 354.707 270.259 353.508V352.061C270.259 350.807 270.476 349.875 270.909 349.266C271.343 348.656 272.022 348.352 272.948 348.352C273.866 348.352 274.542 348.646 274.976 349.236C275.409 349.822 275.632 350.729 275.644 351.955V353.361ZM274.56 351.879C274.56 350.961 274.431 350.293 274.173 349.875C273.915 349.453 273.507 349.242 272.948 349.242C272.394 349.242 271.989 349.451 271.735 349.869C271.481 350.287 271.351 350.93 271.343 351.797V353.531C271.343 354.453 271.476 355.135 271.741 355.576C272.011 356.014 272.417 356.232 272.96 356.232C273.495 356.232 273.892 356.025 274.149 355.611C274.411 355.197 274.548 354.545 274.56 353.654V351.879Z" fill="#172755"/>
<rect x="303.871" y="327" width="66" height="52" fill="white"/>
<path d="M331.132 352.207H331.946C332.458 352.199 332.86 352.064 333.153 351.803C333.446 351.541 333.593 351.188 333.593 350.742C333.593 349.742 333.095 349.242 332.099 349.242C331.63 349.242 331.255 349.377 330.974 349.646C330.696 349.912 330.558 350.266 330.558 350.707H329.474C329.474 350.031 329.72 349.471 330.212 349.025C330.708 348.576 331.337 348.352 332.099 348.352C332.903 348.352 333.534 348.564 333.991 348.99C334.448 349.416 334.677 350.008 334.677 350.766C334.677 351.137 334.556 351.496 334.313 351.844C334.075 352.191 333.749 352.451 333.335 352.623C333.804 352.771 334.165 353.018 334.419 353.361C334.677 353.705 334.806 354.125 334.806 354.621C334.806 355.387 334.556 355.994 334.056 356.443C333.556 356.893 332.905 357.117 332.104 357.117C331.304 357.117 330.651 356.9 330.147 356.467C329.647 356.033 329.397 355.461 329.397 354.75H330.487C330.487 355.199 330.634 355.559 330.927 355.828C331.22 356.098 331.612 356.232 332.104 356.232C332.628 356.232 333.028 356.096 333.306 355.822C333.583 355.549 333.722 355.156 333.722 354.645C333.722 354.148 333.569 353.768 333.265 353.502C332.96 353.236 332.521 353.1 331.946 353.092H331.132V352.207ZM339.856 357H338.767V349.775L336.581 350.578V349.594L339.687 348.428H339.856V357Z" fill="#172755"/>
<rect x="369.871" y="327" width="66" height="52" fill="white"/>
<rect x="435.871" y="327" width="66" height="52" fill="white"/>
<rect x="501.871" y="327" width="66" height="52" fill="white"/>
<path d="M125.673 78.4688L128.462 85.4297L131.251 78.4688H132.71V87H131.585V83.6777L131.691 80.0918L128.89 87H128.029L125.234 80.1094L125.345 83.6777V87H124.22V78.4688H125.673ZM141.259 83.0098C141.259 83.8457 141.119 84.5762 140.837 85.2012C140.556 85.8223 140.158 86.2969 139.642 86.625C139.126 86.9531 138.525 87.1172 137.837 87.1172C137.166 87.1172 136.57 86.9531 136.05 86.625C135.531 86.293 135.126 85.8223 134.837 85.2129C134.552 84.5996 134.406 83.8906 134.398 83.0859V82.4707C134.398 81.6504 134.541 80.9258 134.826 80.2969C135.111 79.668 135.513 79.1875 136.033 78.8555C136.556 78.5195 137.154 78.3516 137.826 78.3516C138.509 78.3516 139.111 78.5176 139.63 78.8496C140.154 79.1777 140.556 79.6562 140.837 80.2852C141.119 80.9102 141.259 81.6387 141.259 82.4707V83.0098ZM140.14 82.459C140.14 81.4473 139.937 80.6719 139.531 80.1328C139.125 79.5898 138.556 79.3184 137.826 79.3184C137.115 79.3184 136.554 79.5898 136.144 80.1328C135.738 80.6719 135.529 81.4219 135.517 82.3828V83.0098C135.517 83.9902 135.722 84.7617 136.132 85.3242C136.546 85.8828 137.115 86.1621 137.837 86.1621C138.564 86.1621 139.126 85.8984 139.525 85.3711C139.923 84.8398 140.128 84.0801 140.14 83.0918V82.459ZM149.503 87H148.373L144.078 80.4258V87H142.947V78.4688H144.078L148.384 85.0723V78.4688H149.503V87Z" fill="#8794BA"/>
<path d="M198.875 79.3945H196.132V87H195.013V79.3945H192.277V78.4688H198.875V79.3945ZM206.146 78.4688V84.2695C206.142 85.0742 205.888 85.7324 205.384 86.2441C204.884 86.7559 204.205 87.043 203.345 87.1055L203.046 87.1172C202.113 87.1172 201.369 86.8652 200.814 86.3613C200.259 85.8574 199.978 85.1641 199.97 84.2812V78.4688H201.083V84.2461C201.083 84.8633 201.253 85.3438 201.593 85.6875C201.933 86.0273 202.417 86.1973 203.046 86.1973C203.683 86.1973 204.169 86.0273 204.505 85.6875C204.845 85.3477 205.015 84.8691 205.015 84.252V78.4688H206.146ZM212.744 83.0566H209.046V86.0801H213.341V87H207.921V78.4688H213.283V79.3945H209.046V82.1367H212.744V83.0566Z" fill="#8794BA"/>
<path d="M259.027 84.3105L259.191 85.4355L259.431 84.4219L261.119 78.4688H262.068L263.714 84.4219L263.949 85.4531L264.13 84.3047L265.455 78.4688H266.585L264.517 87H263.492L261.734 80.7832L261.599 80.1328L261.464 80.7832L259.642 87H258.617L256.554 78.4688H257.679L259.027 84.3105ZM272.662 83.0566H268.964V86.0801H273.259V87H267.839V78.4688H273.201V79.3945H268.964V82.1367H272.662V83.0566ZM274.66 87V78.4688H277.068C277.81 78.4688 278.466 78.6328 279.037 78.9609C279.607 79.2891 280.046 79.7559 280.355 80.3613C280.667 80.9668 280.826 81.6621 280.83 82.4473V82.9922C280.83 83.7969 280.673 84.502 280.361 85.1074C280.052 85.7129 279.609 86.1777 279.031 86.502C278.457 86.8262 277.787 86.9922 277.021 87H274.66ZM275.785 79.3945V86.0801H276.968C277.835 86.0801 278.509 85.8105 278.99 85.2715C279.474 84.7324 279.716 83.9648 279.716 82.9688V82.4707C279.716 81.502 279.488 80.75 279.031 80.2148C278.578 79.6758 277.933 79.4023 277.097 79.3945H275.785Z" fill="#8794BA"/>
<path d="M330.007 79.3945H327.265V87H326.146V79.3945H323.41V78.4688H330.007V79.3945ZM337.83 87H336.699V83.0566H332.398V87H331.273V78.4688H332.398V82.1367H336.699V78.4688H337.83V87ZM345.833 78.4688V84.2695C345.83 85.0742 345.576 85.7324 345.072 86.2441C344.572 86.7559 343.892 87.043 343.033 87.1055L342.734 87.1172C341.8 87.1172 341.056 86.8652 340.501 86.3613C339.947 85.8574 339.666 85.1641 339.658 84.2812V78.4688H340.771V84.2461C340.771 84.8633 340.941 85.3438 341.281 85.6875C341.621 86.0273 342.105 86.1973 342.734 86.1973C343.371 86.1973 343.857 86.0273 344.193 85.6875C344.533 85.3477 344.703 84.8691 344.703 84.252V78.4688H345.833Z" fill="#8794BA"/>
<path d="M397.917 83.2324H394.337V87H393.212V78.4688H398.498V79.3945H394.337V82.3125H397.917V83.2324ZM402.974 83.5488H400.97V87H399.839V78.4688H402.664C403.625 78.4688 404.363 78.6875 404.878 79.125C405.398 79.5625 405.658 80.1992 405.658 81.0352C405.658 81.5664 405.513 82.0293 405.224 82.4238C404.939 82.8184 404.541 83.1133 404.029 83.3086L406.033 86.9297V87H404.826L402.974 83.5488ZM400.97 82.6289H402.699C403.257 82.6289 403.701 82.4844 404.029 82.1953C404.361 81.9062 404.527 81.5195 404.527 81.0352C404.527 80.5078 404.369 80.1035 404.052 79.8223C403.74 79.541 403.287 79.3984 402.693 79.3945H400.97V82.6289ZM408.447 87H407.322V78.4688H408.447V87Z" fill="#8794BA"/>
<path d="M459.699 83.1973C458.734 82.9199 458.031 82.5801 457.589 82.1777C457.152 81.7715 456.933 81.2715 456.933 80.6777C456.933 80.0059 457.201 79.4512 457.736 79.0137C458.275 78.5723 458.974 78.3516 459.833 78.3516C460.419 78.3516 460.941 78.4648 461.398 78.6914C461.859 78.918 462.214 79.2305 462.464 79.6289C462.718 80.0273 462.845 80.4629 462.845 80.9355H461.714C461.714 80.4199 461.55 80.0156 461.222 79.7227C460.894 79.4258 460.431 79.2773 459.833 79.2773C459.279 79.2773 458.845 79.4004 458.533 79.6465C458.224 79.8887 458.07 80.2266 458.07 80.6602C458.07 81.0078 458.216 81.3027 458.509 81.5449C458.806 81.7832 459.308 82.002 460.015 82.2012C460.726 82.4004 461.281 82.6211 461.679 82.8633C462.082 83.1016 462.378 83.3809 462.57 83.7012C462.765 84.0215 462.863 84.3984 462.863 84.832C462.863 85.5234 462.593 86.0781 462.054 86.4961C461.515 86.9102 460.794 87.1172 459.892 87.1172C459.306 87.1172 458.759 87.0059 458.251 86.7832C457.744 86.5566 457.351 86.248 457.074 85.8574C456.8 85.4668 456.664 85.0234 456.664 84.5273H457.794C457.794 85.043 457.984 85.4512 458.363 85.752C458.746 86.0488 459.255 86.1973 459.892 86.1973C460.486 86.1973 460.941 86.0762 461.257 85.834C461.574 85.5918 461.732 85.2617 461.732 84.8438C461.732 84.4258 461.585 84.1035 461.292 83.877C461 83.6465 460.468 83.4199 459.699 83.1973ZM469.021 84.7734H465.447L464.644 87H463.484L466.742 78.4688H467.726L470.99 87H469.835L469.021 84.7734ZM465.787 83.8477H468.687L467.234 79.8574L465.787 83.8477ZM477.271 79.3945H474.529V87H473.41V79.3945H470.673V78.4688H477.271V79.3945Z" fill="#8794BA"/>
<path d="M524.644 83.1973C523.679 82.9199 522.976 82.5801 522.535 82.1777C522.097 81.7715 521.878 81.2715 521.878 80.6777C521.878 80.0059 522.146 79.4512 522.681 79.0137C523.22 78.5723 523.919 78.3516 524.779 78.3516C525.365 78.3516 525.886 78.4648 526.343 78.6914C526.804 78.918 527.16 79.2305 527.41 79.6289C527.664 80.0273 527.791 80.4629 527.791 80.9355H526.66C526.66 80.4199 526.496 80.0156 526.167 79.7227C525.839 79.4258 525.376 79.2773 524.779 79.2773C524.224 79.2773 523.791 79.4004 523.478 79.6465C523.169 79.8887 523.015 80.2266 523.015 80.6602C523.015 81.0078 523.162 81.3027 523.455 81.5449C523.751 81.7832 524.253 82.002 524.96 82.2012C525.671 82.4004 526.226 82.6211 526.625 82.8633C527.027 83.1016 527.324 83.3809 527.515 83.7012C527.71 84.0215 527.808 84.3984 527.808 84.832C527.808 85.5234 527.539 86.0781 527 86.4961C526.46 86.9102 525.74 87.1172 524.837 87.1172C524.251 87.1172 523.705 87.0059 523.197 86.7832C522.689 86.5566 522.296 86.248 522.019 85.8574C521.746 85.4668 521.609 85.0234 521.609 84.5273H522.74C522.74 85.043 522.929 85.4512 523.308 85.752C523.691 86.0488 524.201 86.1973 524.837 86.1973C525.431 86.1973 525.886 86.0762 526.203 85.834C526.519 85.5918 526.677 85.2617 526.677 84.8438C526.677 84.4258 526.531 84.1035 526.238 83.877C525.945 83.6465 525.414 83.4199 524.644 83.1973ZM535.261 78.4688V84.2695C535.257 85.0742 535.003 85.7324 534.5 86.2441C534 86.7559 533.32 87.043 532.46 87.1055L532.162 87.1172C531.228 87.1172 530.484 86.8652 529.929 86.3613C529.375 85.8574 529.093 85.1641 529.085 84.2812V78.4688H530.199V84.2461C530.199 84.8633 530.369 85.3438 530.708 85.6875C531.048 86.0273 531.533 86.1973 532.162 86.1973C532.798 86.1973 533.285 86.0273 533.621 85.6875C533.96 85.3477 534.13 84.8691 534.13 84.252V78.4688H535.261ZM543.593 87H542.462L538.167 80.4258V87H537.037V78.4688H538.167L542.474 85.0723V78.4688H543.593V87Z" fill="#8794BA"/>
<defs>
<filter id="filter0_d_535_1644" x="0.870605" y="0" width="670" height="480" filterUnits="userSpaceOnUse" color-interpolation-filters="sRGB">
<feFlood flood-opacity="0" result="BackgroundImageFix"/>
<feColorMatrix in="SourceAlpha" type="matrix" values="0 0 0 0 0 0 0 0 0 0 0 0 0 0 0 0 0 0 127 0" result="hardAlpha"/>
<feMorphology radius="15" operator="erode" in="SourceAlpha" result="effect1_dropShadow_535_1644"/>
<feOffset dy="18"/>
<feGaussianBlur stdDeviation="25"/>
<feColorMatrix type="matrix" values="0 0 0 0 0.0996452 0 0 0 0 0.164326 0 0 0 0 0.350284 0 0 0 0.2 0"/>
<feBlend mode="normal" in2="BackgroundImageFix" result="effect1_dropShadow_535_1644"/>
<feBlend mode="normal" in="SourceGraphic" in2="effect1_dropShadow_535_1644" result="shape"/>
</filter>
</defs>
</svg>
