<svg width="671" height="480" viewBox="0 0 671 480" fill="none" xmlns="http://www.w3.org/2000/svg">
<g filter="url(#filter0_d_535_1460)">
<rect x="35.8706" y="17" width="600" height="410" rx="30" fill="white"/>
</g>
<rect x="134.871" y="89" width="1" height="271" fill="#EEEEF7"/>
<rect x="197.871" y="89" width="1" height="271" fill="#EEEEF7"/>
<rect x="260.871" y="89" width="1" height="271" fill="#EEEEF7"/>
<rect x="323.871" y="89" width="1" height="271" fill="#EEEEF7"/>
<rect x="386.871" y="89" width="1" height="271" fill="#EEEEF7"/>
<rect x="449.871" y="89" width="1" height="271" fill="#EEEEF7"/>
<rect x="512.871" y="89" width="1" height="271" fill="#EEEEF7"/>
<rect x="575.871" y="89" width="1" height="271" fill="#EEEEF7"/>
<path d="M94.8081 109.723L95.2417 105.469H99.6128V106.471H96.1616L95.9038 108.797C96.3218 108.551 96.7964 108.428 97.3276 108.428C98.105 108.428 98.7222 108.686 99.1792 109.201C99.6362 109.713 99.8647 110.406 99.8647 111.281C99.8647 112.16 99.6265 112.854 99.1499 113.361C98.6772 113.865 98.0151 114.117 97.1636 114.117C96.4097 114.117 95.7944 113.908 95.3179 113.49C94.8413 113.072 94.5698 112.494 94.5034 111.756H95.5288C95.5952 112.244 95.769 112.613 96.0503 112.863C96.3315 113.109 96.7026 113.232 97.1636 113.232C97.6675 113.232 98.062 113.061 98.3472 112.717C98.6362 112.373 98.7808 111.898 98.7808 111.293C98.7808 110.723 98.6245 110.266 98.312 109.922C98.0034 109.574 97.5913 109.4 97.0757 109.4C96.603 109.4 96.2319 109.504 95.9624 109.711L95.6753 109.945L94.8081 109.723ZM105.625 111.135H106.808V112.02H105.625V114H104.535V112.02H100.65V111.381L104.47 105.469H105.625V111.135ZM101.88 111.135H104.535V106.951L104.406 107.186L101.88 111.135ZM110.154 110.818H107.294V109.934H110.154V110.818ZM115.357 105.463V106.383H115.158C114.314 106.398 113.642 106.648 113.142 107.133C112.642 107.617 112.353 108.299 112.275 109.178C112.724 108.662 113.337 108.404 114.115 108.404C114.857 108.404 115.449 108.666 115.89 109.189C116.335 109.713 116.558 110.389 116.558 111.217C116.558 112.096 116.318 112.799 115.837 113.326C115.361 113.854 114.72 114.117 113.916 114.117C113.099 114.117 112.437 113.805 111.929 113.18C111.421 112.551 111.167 111.742 111.167 110.754V110.338C111.167 108.768 111.501 107.568 112.169 106.74C112.841 105.908 113.839 105.482 115.164 105.463H115.357ZM113.933 109.307C113.562 109.307 113.22 109.418 112.908 109.641C112.595 109.863 112.378 110.143 112.257 110.479V110.877C112.257 111.58 112.416 112.146 112.732 112.576C113.048 113.006 113.443 113.221 113.916 113.221C114.404 113.221 114.787 113.041 115.064 112.682C115.345 112.322 115.486 111.852 115.486 111.27C115.486 110.684 115.343 110.211 115.058 109.852C114.777 109.488 114.402 109.307 113.933 109.307ZM118.339 109.723L118.773 105.469H123.144V106.471H119.693L119.435 108.797C119.853 108.551 120.328 108.428 120.859 108.428C121.636 108.428 122.253 108.686 122.71 109.201C123.167 109.713 123.396 110.406 123.396 111.281C123.396 112.16 123.158 112.854 122.681 113.361C122.208 113.865 121.546 114.117 120.695 114.117C119.941 114.117 119.326 113.908 118.849 113.49C118.373 113.072 118.101 112.494 118.035 111.756H119.06C119.126 112.244 119.3 112.613 119.582 112.863C119.863 113.109 120.234 113.232 120.695 113.232C121.199 113.232 121.593 113.061 121.878 112.717C122.167 112.373 122.312 111.898 122.312 111.293C122.312 110.723 122.156 110.266 121.843 109.922C121.535 109.574 121.123 109.4 120.607 109.4C120.134 109.4 119.763 109.504 119.494 109.711L119.207 109.945L118.339 109.723Z" fill="#8794BA"/>
<path d="M98.8862 167.135H100.07V168.02H98.8862V170H97.7964V168.02H93.9116V167.381L97.7319 161.469H98.8862V167.135ZM95.1421 167.135H97.7964V162.951L97.6675 163.186L95.1421 167.135ZM101.546 165.723L101.98 161.469H106.351V162.471H102.9L102.642 164.797C103.06 164.551 103.535 164.428 104.066 164.428C104.843 164.428 105.46 164.686 105.917 165.201C106.375 165.713 106.603 166.406 106.603 167.281C106.603 168.16 106.365 168.854 105.888 169.361C105.416 169.865 104.753 170.117 103.902 170.117C103.148 170.117 102.533 169.908 102.056 169.49C101.58 169.072 101.308 168.494 101.242 167.756H102.267C102.333 168.244 102.507 168.613 102.789 168.863C103.07 169.109 103.441 169.232 103.902 169.232C104.406 169.232 104.8 169.061 105.085 168.717C105.375 168.373 105.519 167.898 105.519 167.293C105.519 166.723 105.363 166.266 105.05 165.922C104.742 165.574 104.33 165.4 103.814 165.4C103.341 165.4 102.97 165.504 102.701 165.711L102.414 165.945L101.546 165.723ZM110.154 166.818H107.294V165.934H110.154V166.818ZM111.601 165.723L112.035 161.469H116.406V162.471H112.955L112.697 164.797C113.115 164.551 113.589 164.428 114.121 164.428C114.898 164.428 115.515 164.686 115.972 165.201C116.429 165.713 116.658 166.406 116.658 167.281C116.658 168.16 116.419 168.854 115.943 169.361C115.47 169.865 114.808 170.117 113.957 170.117C113.203 170.117 112.587 169.908 112.111 169.49C111.634 169.072 111.363 168.494 111.296 167.756H112.322C112.388 168.244 112.562 168.613 112.843 168.863C113.125 169.109 113.496 169.232 113.957 169.232C114.46 169.232 114.855 169.061 115.14 168.717C115.429 168.373 115.574 167.898 115.574 167.293C115.574 166.723 115.417 166.266 115.105 165.922C114.796 165.574 114.384 165.4 113.869 165.4C113.396 165.4 113.025 165.504 112.755 165.711L112.468 165.945L111.601 165.723ZM122.417 167.135H123.601V168.02H122.417V170H121.328V168.02H117.443V167.381L121.263 161.469H122.417V167.135ZM118.673 167.135H121.328V162.951L121.199 163.186L118.673 167.135Z" fill="#8794BA"/>
<path d="M95.8862 221.207H96.7007C97.2124 221.199 97.6147 221.064 97.9077 220.803C98.2007 220.541 98.3472 220.188 98.3472 219.742C98.3472 218.742 97.8491 218.242 96.853 218.242C96.3843 218.242 96.0093 218.377 95.728 218.646C95.4507 218.912 95.312 219.266 95.312 219.707H94.228C94.228 219.031 94.4741 218.471 94.9663 218.025C95.4624 217.576 96.0913 217.352 96.853 217.352C97.6577 217.352 98.2886 217.564 98.7456 217.99C99.2026 218.416 99.4312 219.008 99.4312 219.766C99.4312 220.137 99.3101 220.496 99.0679 220.844C98.8296 221.191 98.5034 221.451 98.0894 221.623C98.5581 221.771 98.9194 222.018 99.1733 222.361C99.4312 222.705 99.5601 223.125 99.5601 223.621C99.5601 224.387 99.3101 224.994 98.8101 225.443C98.3101 225.893 97.6597 226.117 96.8589 226.117C96.0581 226.117 95.4058 225.9 94.9019 225.467C94.4019 225.033 94.1519 224.461 94.1519 223.75H95.2417C95.2417 224.199 95.3882 224.559 95.6812 224.828C95.9741 225.098 96.3667 225.232 96.8589 225.232C97.3823 225.232 97.7827 225.096 98.0601 224.822C98.3374 224.549 98.4761 224.156 98.4761 223.645C98.4761 223.148 98.3237 222.768 98.019 222.502C97.7144 222.236 97.2749 222.1 96.7007 222.092H95.8862V221.207ZM101.546 221.723L101.98 217.469H106.351V218.471H102.9L102.642 220.797C103.06 220.551 103.535 220.428 104.066 220.428C104.843 220.428 105.46 220.686 105.917 221.201C106.375 221.713 106.603 222.406 106.603 223.281C106.603 224.16 106.365 224.854 105.888 225.361C105.416 225.865 104.753 226.117 103.902 226.117C103.148 226.117 102.533 225.908 102.056 225.49C101.58 225.072 101.308 224.494 101.242 223.756H102.267C102.333 224.244 102.507 224.613 102.789 224.863C103.07 225.109 103.441 225.232 103.902 225.232C104.406 225.232 104.8 225.061 105.085 224.717C105.375 224.373 105.519 223.898 105.519 223.293C105.519 222.723 105.363 222.266 105.05 221.922C104.742 221.574 104.33 221.4 103.814 221.4C103.341 221.4 102.97 221.504 102.701 221.711L102.414 221.945L101.546 221.723ZM110.154 222.818H107.294V221.934H110.154V222.818ZM115.679 223.135H116.863V224.02H115.679V226H114.589V224.02H110.705V223.381L114.525 217.469H115.679V223.135ZM111.935 223.135H114.589V218.951L114.46 219.186L111.935 223.135ZM122.417 223.135H123.601V224.02H122.417V226H121.328V224.02H117.443V223.381L121.263 217.469H122.417V223.135ZM118.673 223.135H121.328V218.951L121.199 219.186L118.673 223.135Z" fill="#8794BA"/>
<path d="M99.8999 282H94.3101V281.221L97.2632 277.939C97.7007 277.443 98.0015 277.041 98.1655 276.732C98.3335 276.42 98.4175 276.098 98.4175 275.766C98.4175 275.32 98.2827 274.955 98.0132 274.67C97.7437 274.385 97.3843 274.242 96.9351 274.242C96.396 274.242 95.9761 274.396 95.6753 274.705C95.3784 275.01 95.23 275.436 95.23 275.982H94.146C94.146 275.197 94.3979 274.562 94.9019 274.078C95.4097 273.594 96.0874 273.352 96.9351 273.352C97.728 273.352 98.355 273.561 98.8159 273.979C99.2769 274.393 99.5073 274.945 99.5073 275.637C99.5073 276.477 98.9722 277.477 97.9019 278.637L95.6167 281.115H99.8999V282ZM101.546 277.723L101.98 273.469H106.351V274.471H102.9L102.642 276.797C103.06 276.551 103.535 276.428 104.066 276.428C104.843 276.428 105.46 276.686 105.917 277.201C106.375 277.713 106.603 278.406 106.603 279.281C106.603 280.16 106.365 280.854 105.888 281.361C105.416 281.865 104.753 282.117 103.902 282.117C103.148 282.117 102.533 281.908 102.056 281.49C101.58 281.072 101.308 280.494 101.242 279.756H102.267C102.333 280.244 102.507 280.613 102.789 280.863C103.07 281.109 103.441 281.232 103.902 281.232C104.406 281.232 104.8 281.061 105.085 280.717C105.375 280.373 105.519 279.898 105.519 279.293C105.519 278.723 105.363 278.266 105.05 277.922C104.742 277.574 104.33 277.4 103.814 277.4C103.341 277.4 102.97 277.504 102.701 277.711L102.414 277.945L101.546 277.723ZM110.154 278.818H107.294V277.934H110.154V278.818ZM112.679 277.207H113.494C114.005 277.199 114.408 277.064 114.701 276.803C114.994 276.541 115.14 276.188 115.14 275.742C115.14 274.742 114.642 274.242 113.646 274.242C113.177 274.242 112.802 274.377 112.521 274.646C112.244 274.912 112.105 275.266 112.105 275.707H111.021C111.021 275.031 111.267 274.471 111.759 274.025C112.255 273.576 112.884 273.352 113.646 273.352C114.451 273.352 115.082 273.564 115.539 273.99C115.996 274.416 116.224 275.008 116.224 275.766C116.224 276.137 116.103 276.496 115.861 276.844C115.623 277.191 115.296 277.451 114.882 277.623C115.351 277.771 115.712 278.018 115.966 278.361C116.224 278.705 116.353 279.125 116.353 279.621C116.353 280.387 116.103 280.994 115.603 281.443C115.103 281.893 114.453 282.117 113.652 282.117C112.851 282.117 112.199 281.9 111.695 281.467C111.195 281.033 110.945 280.461 110.945 279.75H112.035C112.035 280.199 112.181 280.559 112.474 280.828C112.767 281.098 113.16 281.232 113.652 281.232C114.175 281.232 114.576 281.096 114.853 280.822C115.13 280.549 115.269 280.156 115.269 279.645C115.269 279.148 115.117 278.768 114.812 278.502C114.507 278.236 114.068 278.1 113.494 278.092H112.679V277.207ZM122.417 279.135H123.601V280.02H122.417V282H121.328V280.02H117.443V279.381L121.263 273.469H122.417V279.135ZM118.673 279.135H121.328V274.951L121.199 275.186L118.673 279.135Z" fill="#8794BA"/>
<path d="M97.8726 338H96.7827V330.775L94.5972 331.578V330.594L97.7026 329.428H97.8726V338ZM106.222 331.695C106.222 332.121 106.109 332.5 105.882 332.832C105.66 333.164 105.357 333.424 104.974 333.611C105.419 333.803 105.771 334.082 106.029 334.449C106.291 334.816 106.421 335.232 106.421 335.697C106.421 336.436 106.171 337.023 105.671 337.461C105.175 337.898 104.521 338.117 103.708 338.117C102.888 338.117 102.23 337.898 101.734 337.461C101.242 337.02 100.996 336.432 100.996 335.697C100.996 335.236 101.121 334.82 101.371 334.449C101.625 334.078 101.974 333.797 102.419 333.605C102.041 333.418 101.742 333.158 101.523 332.826C101.304 332.494 101.195 332.117 101.195 331.695C101.195 330.977 101.425 330.406 101.886 329.984C102.347 329.562 102.955 329.352 103.708 329.352C104.458 329.352 105.064 329.562 105.525 329.984C105.99 330.406 106.222 330.977 106.222 331.695ZM105.337 335.674C105.337 335.197 105.185 334.809 104.88 334.508C104.58 334.207 104.185 334.057 103.697 334.057C103.208 334.057 102.816 334.205 102.519 334.502C102.226 334.799 102.08 335.189 102.08 335.674C102.08 336.158 102.222 336.539 102.507 336.816C102.796 337.094 103.197 337.232 103.708 337.232C104.216 337.232 104.615 337.094 104.904 336.816C105.193 336.535 105.337 336.154 105.337 335.674ZM103.708 330.242C103.283 330.242 102.937 330.375 102.671 330.641C102.41 330.902 102.279 331.26 102.279 331.713C102.279 332.146 102.408 332.498 102.666 332.768C102.927 333.033 103.275 333.166 103.708 333.166C104.142 333.166 104.488 333.033 104.746 332.768C105.007 332.498 105.138 332.146 105.138 331.713C105.138 331.279 105.003 330.926 104.734 330.652C104.464 330.379 104.123 330.242 103.708 330.242ZM110.154 334.818H107.294V333.934H110.154V334.818ZM116.693 338H111.103V337.221L114.056 333.939C114.494 333.443 114.794 333.041 114.958 332.732C115.126 332.42 115.21 332.098 115.21 331.766C115.21 331.32 115.076 330.955 114.806 330.67C114.537 330.385 114.177 330.242 113.728 330.242C113.189 330.242 112.769 330.396 112.468 330.705C112.171 331.01 112.023 331.436 112.023 331.982H110.939C110.939 331.197 111.191 330.562 111.695 330.078C112.203 329.594 112.88 329.352 113.728 329.352C114.521 329.352 115.148 329.561 115.609 329.979C116.07 330.393 116.3 330.945 116.3 331.637C116.3 332.477 115.765 333.477 114.695 334.637L112.41 337.115H116.693V338ZM122.417 335.135H123.601V336.02H122.417V338H121.328V336.02H117.443V335.381L121.263 329.469H122.417V335.135ZM118.673 335.135H121.328V330.951L121.199 331.186L118.673 335.135Z" fill="#8794BA"/>
<path d="M134.871 96H391.371C394.408 96 396.871 98.4624 396.871 101.5C396.871 104.538 394.408 107 391.371 107H134.871V96Z" fill="#EF2A82"/>
<path d="M134.871 153H304.371C307.408 153 309.871 155.462 309.871 158.5C309.871 161.538 307.408 164 304.371 164H134.871V153Z" fill="#EF2A82"/>
<path d="M134.871 210H145.371C148.408 210 150.871 212.462 150.871 215.5C150.871 218.538 148.408 221 145.371 221H134.871V210Z" fill="#EF2A82"/>
<path d="M134.871 267H177.371C180.408 267 182.871 269.462 182.871 272.5C182.871 275.538 180.408 278 177.371 278H134.871V267Z" fill="#EF2A82"/>
<path d="M134.871 324H337.371C340.408 324 342.871 326.462 342.871 329.5C342.871 332.538 340.408 335 337.371 335H134.871V324Z" fill="#EF2A82"/>
<path d="M134.871 110H277.371C280.408 110 282.871 112.462 282.871 115.5C282.871 118.538 280.408 121 277.371 121H134.871V110Z" fill="#0088F0"/>
<path d="M134.871 167H337.371C340.408 167 342.871 169.462 342.871 172.5C342.871 175.538 340.408 178 337.371 178H134.871V167Z" fill="#0088F0"/>
<path d="M134.871 224H177.371C180.408 224 182.871 226.462 182.871 229.5C182.871 232.538 180.408 235 177.371 235H134.871V224Z" fill="#0088F0"/>
<path d="M134.871 281H468.371C471.408 281 473.871 283.462 473.871 286.5C473.871 289.538 471.408 292 468.371 292H134.871V281Z" fill="#0088F0"/>
<path d="M134.871 338H525.371C528.408 338 530.871 340.462 530.871 343.5C530.871 346.538 528.408 349 525.371 349H134.871V338Z" fill="#0088F0"/>
<defs>
<filter id="filter0_d_535_1460" x="0.870605" y="0" width="670" height="480" filterUnits="userSpaceOnUse" color-interpolation-filters="sRGB">
<feFlood flood-opacity="0" result="BackgroundImageFix"/>
<feColorMatrix in="SourceAlpha" type="matrix" values="0 0 0 0 0 0 0 0 0 0 0 0 0 0 0 0 0 0 127 0" result="hardAlpha"/>
<feMorphology radius="15" operator="erode" in="SourceAlpha" result="effect1_dropShadow_535_1460"/>
<feOffset dy="18"/>
<feGaussianBlur stdDeviation="25"/>
<feColorMatrix type="matrix" values="0 0 0 0 0.0996452 0 0 0 0 0.164326 0 0 0 0 0.350284 0 0 0 0.2 0"/>
<feBlend mode="normal" in2="BackgroundImageFix" result="effect1_dropShadow_535_1460"/>
<feBlend mode="normal" in="SourceGraphic" in2="effect1_dropShadow_535_1460" result="shape"/>
</filter>
</defs>
</svg>
