<svg width="671" height="480" viewBox="0 0 671 480" fill="none" xmlns="http://www.w3.org/2000/svg">
<g filter="url(#filter0_d_535_1410)">
<rect x="35.8706" y="17" width="600" height="410" rx="30" fill="white"/>
</g>
<path d="M146.885 157.077L255.871 94.1547L364.856 157.077V282.923L255.871 345.845L146.885 282.923V157.077Z" stroke="#EEEEF7" stroke-width="2"/>
<path d="M184.99 179.077L255.871 138.155L326.751 179.077V260.923L255.871 301.845L184.99 260.923V179.077Z" stroke="#EEEEF7" stroke-width="2"/>
<path d="M198.284 187.015L256.234 139.292L337.95 171.394L343.802 269.403L256.216 321.468L191.947 254.278L198.284 187.015Z" stroke="#0088F0" stroke-width="4"/>
<path d="M172.392 172.392L255.232 126.637L301.11 194.966L331.313 264H256.145L203.66 249.338L172.392 172.392Z" stroke="#EF2A82" stroke-width="4"/>
<path d="M231.756 206.077L255.871 192.155L279.985 206.077V233.923L255.871 247.845L231.756 233.923V206.077Z" stroke="#EEEEF7" stroke-width="2"/>
<path d="M496.379 153.252H499.055C500.736 153.226 502.058 152.783 503.021 151.923C503.984 151.063 504.465 149.902 504.465 148.439C504.465 145.153 502.828 143.51 499.556 143.51C498.015 143.51 496.783 143.953 495.859 144.838C494.948 145.711 494.492 146.873 494.492 148.323H490.931C490.931 146.103 491.739 144.261 493.356 142.798C494.986 141.322 497.053 140.584 499.556 140.584C502.2 140.584 504.272 141.283 505.774 142.682C507.276 144.081 508.027 146.026 508.027 148.516C508.027 149.735 507.629 150.916 506.833 152.058C506.05 153.2 504.978 154.054 503.618 154.619C505.158 155.106 506.345 155.915 507.179 157.044C508.027 158.174 508.45 159.554 508.45 161.184C508.45 163.699 507.629 165.695 505.986 167.171C504.343 168.647 502.206 169.385 499.575 169.385C496.944 169.385 494.8 168.673 493.145 167.248C491.502 165.823 490.68 163.943 490.68 161.607H494.261C494.261 163.083 494.743 164.264 495.705 165.15C496.668 166.035 497.958 166.478 499.575 166.478C501.295 166.478 502.61 166.029 503.522 165.13C504.433 164.232 504.888 162.942 504.888 161.261C504.888 159.631 504.388 158.379 503.387 157.506C502.386 156.634 500.942 156.184 499.055 156.159H496.379V153.252ZM528.376 159.586H532.265V162.493H528.376V169H524.795V162.493H512.031V160.394L524.583 140.969H528.376V159.586ZM516.074 159.586H524.795V145.84L524.372 146.61L516.074 159.586ZM535.172 146.359C535.172 144.678 535.705 143.292 536.77 142.201C537.848 141.11 539.228 140.564 540.909 140.564C542.616 140.564 543.996 141.116 545.049 142.22C546.114 143.311 546.647 144.729 546.647 146.475V147.842C546.647 149.536 546.107 150.922 545.029 152C543.964 153.066 542.604 153.598 540.948 153.598C539.279 153.598 537.9 153.066 536.809 152C535.718 150.922 535.172 149.491 535.172 147.707V146.359ZM537.829 147.842C537.829 148.843 538.111 149.671 538.676 150.325C539.241 150.967 539.998 151.288 540.948 151.288C541.859 151.288 542.591 150.973 543.143 150.345C543.707 149.716 543.99 148.856 543.99 147.765V146.359C543.99 145.358 543.714 144.53 543.162 143.876C542.61 143.221 541.859 142.894 540.909 142.894C539.96 142.894 539.209 143.221 538.657 143.876C538.105 144.53 537.829 145.384 537.829 146.436V147.842ZM548.822 162.127C548.822 160.446 549.355 159.066 550.42 157.988C551.498 156.897 552.878 156.351 554.559 156.351C556.241 156.351 557.62 156.89 558.698 157.968C559.777 159.047 560.316 160.478 560.316 162.262V163.629C560.316 165.31 559.777 166.696 558.698 167.787C557.633 168.865 556.266 169.404 554.598 169.404C552.929 169.404 551.549 168.872 550.458 167.806C549.368 166.728 548.822 165.297 548.822 163.513V162.127ZM551.479 163.629C551.479 164.643 551.761 165.477 552.326 166.131C552.891 166.773 553.648 167.094 554.598 167.094C555.522 167.094 556.26 166.78 556.812 166.151C557.364 165.509 557.64 164.643 557.64 163.552V162.127C557.64 161.113 557.357 160.285 556.792 159.643C556.241 159.002 555.496 158.681 554.559 158.681C553.648 158.681 552.904 159.002 552.326 159.643C551.761 160.272 551.479 161.126 551.479 162.204V163.629ZM541.756 166.882L539.735 165.612L553.423 143.703L555.445 144.973L541.756 166.882Z" fill="#EF2A82"/>
<path d="M489.67 195.157C489.67 194.226 489.852 193.388 490.215 192.644C490.584 191.899 491.094 191.325 491.745 190.921C492.401 190.517 493.148 190.314 493.986 190.314C495.281 190.314 496.327 190.763 497.124 191.659C497.926 192.556 498.328 193.748 498.328 195.236V195.351C498.328 196.276 498.149 197.108 497.792 197.847C497.44 198.579 496.933 199.15 496.271 199.561C495.615 199.971 494.859 200.176 494.003 200.176C492.714 200.176 491.668 199.728 490.866 198.831C490.069 197.935 489.67 196.748 489.67 195.271V195.157ZM491.305 195.351C491.305 196.405 491.548 197.252 492.035 197.891C492.527 198.529 493.183 198.849 494.003 198.849C494.83 198.849 495.486 198.526 495.972 197.882C496.458 197.231 496.702 196.323 496.702 195.157C496.702 194.114 496.453 193.271 495.955 192.626C495.462 191.976 494.806 191.65 493.986 191.65C493.183 191.65 492.536 191.97 492.043 192.608C491.551 193.247 491.305 194.161 491.305 195.351ZM508.4 195.351C508.4 196.798 508.069 197.964 507.407 198.849C506.745 199.733 505.848 200.176 504.717 200.176C503.563 200.176 502.655 199.81 501.993 199.077V203.656H500.367V190.49H501.852L501.931 191.545C502.593 190.725 503.513 190.314 504.691 190.314C505.833 190.314 506.736 190.745 507.398 191.606C508.066 192.468 508.4 193.666 508.4 195.201V195.351ZM506.774 195.166C506.774 194.094 506.545 193.247 506.088 192.626C505.631 192.005 505.004 191.694 504.208 191.694C503.223 191.694 502.485 192.131 501.993 193.004V197.548C502.479 198.415 503.223 198.849 504.225 198.849C505.004 198.849 505.623 198.541 506.08 197.926C506.542 197.305 506.774 196.385 506.774 195.166ZM512.68 188.188V190.49H514.456V191.747H512.68V197.645C512.68 198.025 512.759 198.312 512.917 198.506C513.076 198.693 513.345 198.787 513.726 198.787C513.914 198.787 514.171 198.752 514.5 198.682V200C514.072 200.117 513.656 200.176 513.251 200.176C512.525 200.176 511.977 199.956 511.608 199.517C511.239 199.077 511.054 198.453 511.054 197.645V191.747H509.323V190.49H511.054V188.188H512.68ZM518.129 200H516.503V190.49H518.129V200ZM516.372 187.968C516.372 187.704 516.451 187.481 516.609 187.3C516.773 187.118 517.013 187.027 517.33 187.027C517.646 187.027 517.886 187.118 518.05 187.3C518.214 187.481 518.296 187.704 518.296 187.968C518.296 188.231 518.214 188.451 518.05 188.627C517.886 188.803 517.646 188.891 517.33 188.891C517.013 188.891 516.773 188.803 516.609 188.627C516.451 188.451 516.372 188.231 516.372 187.968ZM520.309 195.157C520.309 194.226 520.491 193.388 520.854 192.644C521.223 191.899 521.733 191.325 522.383 190.921C523.04 190.517 523.787 190.314 524.625 190.314C525.919 190.314 526.965 190.763 527.762 191.659C528.565 192.556 528.966 193.748 528.966 195.236V195.351C528.966 196.276 528.788 197.108 528.43 197.847C528.079 198.579 527.572 199.15 526.91 199.561C526.253 199.971 525.498 200.176 524.642 200.176C523.353 200.176 522.307 199.728 521.504 198.831C520.708 197.935 520.309 196.748 520.309 195.271V195.157ZM521.944 195.351C521.944 196.405 522.187 197.252 522.673 197.891C523.166 198.529 523.822 198.849 524.642 198.849C525.468 198.849 526.125 198.526 526.611 197.882C527.097 197.231 527.34 196.323 527.34 195.157C527.34 194.114 527.091 193.271 526.593 192.626C526.101 191.976 525.445 191.65 524.625 191.65C523.822 191.65 523.174 191.97 522.682 192.608C522.19 193.247 521.944 194.161 521.944 195.351ZM532.543 190.49L532.596 191.686C533.323 190.771 534.272 190.314 535.444 190.314C537.454 190.314 538.467 191.448 538.485 193.716V200H536.859V193.707C536.853 193.021 536.695 192.515 536.384 192.187C536.08 191.858 535.602 191.694 534.952 191.694C534.424 191.694 533.961 191.835 533.563 192.116C533.165 192.397 532.854 192.767 532.631 193.224V200H531.005V190.49H532.543ZM550.579 200H548.944V189.163L545.666 190.367V188.891L550.324 187.142H550.579V200Z" fill="#8794BA"/>
<path d="M509.567 281H491.2V278.439L500.903 267.658C502.341 266.028 503.329 264.706 503.868 263.692C504.42 262.665 504.696 261.607 504.696 260.516C504.696 259.052 504.253 257.852 503.368 256.915C502.482 255.979 501.301 255.51 499.825 255.51C498.054 255.51 496.674 256.017 495.686 257.031C494.71 258.032 494.223 259.431 494.223 261.228H490.661C490.661 258.648 491.489 256.562 493.145 254.971C494.813 253.379 497.04 252.584 499.825 252.584C502.431 252.584 504.491 253.27 506.005 254.644C507.52 256.004 508.277 257.82 508.277 260.092C508.277 262.852 506.518 266.137 503.002 269.949L495.493 278.093H509.567V281ZM526.99 268.679C526.246 269.564 525.354 270.277 524.314 270.816C523.287 271.355 522.158 271.624 520.926 271.624C519.308 271.624 517.897 271.226 516.69 270.431C515.496 269.635 514.572 268.518 513.918 267.081C513.263 265.63 512.936 264.032 512.936 262.287C512.936 260.413 513.289 258.725 513.995 257.223C514.714 255.722 515.727 254.573 517.037 253.777C518.346 252.982 519.873 252.584 521.619 252.584C524.391 252.584 526.573 253.623 528.164 255.703C529.769 257.769 530.571 260.593 530.571 264.174V265.213C530.571 270.668 529.493 274.653 527.337 277.169C525.18 279.672 521.927 280.955 517.576 281.019H516.883V278.016H517.633C520.573 277.965 522.832 277.201 524.41 275.725C525.989 274.236 526.849 271.887 526.99 268.679ZM521.503 268.679C522.697 268.679 523.794 268.313 524.795 267.581C525.809 266.85 526.547 265.945 527.009 264.867V263.442C527.009 261.106 526.502 259.206 525.488 257.743C524.474 256.28 523.191 255.549 521.638 255.549C520.072 255.549 518.814 256.152 517.864 257.358C516.915 258.552 516.44 260.131 516.44 262.094C516.44 264.007 516.895 265.585 517.807 266.83C518.731 268.062 519.963 268.679 521.503 268.679ZM535.172 258.359C535.172 256.678 535.705 255.292 536.77 254.201C537.848 253.11 539.228 252.564 540.909 252.564C542.616 252.564 543.996 253.116 545.049 254.22C546.114 255.311 546.647 256.729 546.647 258.475V259.842C546.647 261.536 546.107 262.922 545.029 264C543.964 265.066 542.604 265.598 540.948 265.598C539.279 265.598 537.9 265.066 536.809 264C535.718 262.922 535.172 261.491 535.172 259.707V258.359ZM537.829 259.842C537.829 260.843 538.111 261.671 538.676 262.325C539.241 262.967 539.998 263.288 540.948 263.288C541.859 263.288 542.591 262.973 543.143 262.345C543.707 261.716 543.99 260.856 543.99 259.765V258.359C543.99 257.358 543.714 256.53 543.162 255.876C542.61 255.221 541.859 254.894 540.909 254.894C539.96 254.894 539.209 255.221 538.657 255.876C538.105 256.53 537.829 257.384 537.829 258.436V259.842ZM548.822 274.127C548.822 272.446 549.355 271.066 550.42 269.988C551.498 268.897 552.878 268.351 554.559 268.351C556.241 268.351 557.62 268.89 558.698 269.968C559.777 271.047 560.316 272.478 560.316 274.262V275.629C560.316 277.31 559.777 278.696 558.698 279.787C557.633 280.865 556.266 281.404 554.598 281.404C552.929 281.404 551.549 280.872 550.458 279.806C549.368 278.728 548.822 277.297 548.822 275.513V274.127ZM551.479 275.629C551.479 276.643 551.761 277.477 552.326 278.131C552.891 278.773 553.648 279.094 554.598 279.094C555.522 279.094 556.26 278.78 556.812 278.151C557.364 277.509 557.64 276.643 557.64 275.552V274.127C557.64 273.113 557.357 272.285 556.792 271.643C556.241 271.002 555.496 270.681 554.559 270.681C553.648 270.681 552.904 271.002 552.326 271.643C551.761 272.272 551.479 273.126 551.479 274.204V275.629ZM541.756 278.882L539.735 277.612L553.423 255.703L555.445 256.973L541.756 278.882Z" fill="#0088F0"/>
<path d="M489.67 307.157C489.67 306.226 489.852 305.388 490.215 304.644C490.584 303.899 491.094 303.325 491.745 302.921C492.401 302.517 493.148 302.314 493.986 302.314C495.281 302.314 496.327 302.763 497.124 303.659C497.926 304.556 498.328 305.748 498.328 307.236V307.351C498.328 308.276 498.149 309.108 497.792 309.847C497.44 310.579 496.933 311.15 496.271 311.561C495.615 311.971 494.859 312.176 494.003 312.176C492.714 312.176 491.668 311.728 490.866 310.831C490.069 309.935 489.67 308.748 489.67 307.271V307.157ZM491.305 307.351C491.305 308.405 491.548 309.252 492.035 309.891C492.527 310.529 493.183 310.849 494.003 310.849C494.83 310.849 495.486 310.526 495.972 309.882C496.458 309.231 496.702 308.323 496.702 307.157C496.702 306.114 496.453 305.271 495.955 304.626C495.462 303.976 494.806 303.65 493.986 303.65C493.183 303.65 492.536 303.97 492.043 304.608C491.551 305.247 491.305 306.161 491.305 307.351ZM508.4 307.351C508.4 308.798 508.069 309.964 507.407 310.849C506.745 311.733 505.848 312.176 504.717 312.176C503.563 312.176 502.655 311.81 501.993 311.077V315.656H500.367V302.49H501.852L501.931 303.545C502.593 302.725 503.513 302.314 504.691 302.314C505.833 302.314 506.736 302.745 507.398 303.606C508.066 304.468 508.4 305.666 508.4 307.201V307.351ZM506.774 307.166C506.774 306.094 506.545 305.247 506.088 304.626C505.631 304.005 505.004 303.694 504.208 303.694C503.223 303.694 502.485 304.131 501.993 305.004V309.548C502.479 310.415 503.223 310.849 504.225 310.849C505.004 310.849 505.623 310.541 506.08 309.926C506.542 309.305 506.774 308.385 506.774 307.166ZM512.68 300.188V302.49H514.456V303.747H512.68V309.645C512.68 310.025 512.759 310.312 512.917 310.506C513.076 310.693 513.345 310.787 513.726 310.787C513.914 310.787 514.171 310.752 514.5 310.682V312C514.072 312.117 513.656 312.176 513.251 312.176C512.525 312.176 511.977 311.956 511.608 311.517C511.239 311.077 511.054 310.453 511.054 309.645V303.747H509.323V302.49H511.054V300.188H512.68ZM518.129 312H516.503V302.49H518.129V312ZM516.372 299.968C516.372 299.704 516.451 299.481 516.609 299.3C516.773 299.118 517.013 299.027 517.33 299.027C517.646 299.027 517.886 299.118 518.05 299.3C518.214 299.481 518.296 299.704 518.296 299.968C518.296 300.231 518.214 300.451 518.05 300.627C517.886 300.803 517.646 300.891 517.33 300.891C517.013 300.891 516.773 300.803 516.609 300.627C516.451 300.451 516.372 300.231 516.372 299.968ZM520.309 307.157C520.309 306.226 520.491 305.388 520.854 304.644C521.223 303.899 521.733 303.325 522.383 302.921C523.04 302.517 523.787 302.314 524.625 302.314C525.919 302.314 526.965 302.763 527.762 303.659C528.565 304.556 528.966 305.748 528.966 307.236V307.351C528.966 308.276 528.788 309.108 528.43 309.847C528.079 310.579 527.572 311.15 526.91 311.561C526.253 311.971 525.498 312.176 524.642 312.176C523.353 312.176 522.307 311.728 521.504 310.831C520.708 309.935 520.309 308.748 520.309 307.271V307.157ZM521.944 307.351C521.944 308.405 522.187 309.252 522.673 309.891C523.166 310.529 523.822 310.849 524.642 310.849C525.468 310.849 526.125 310.526 526.611 309.882C527.097 309.231 527.34 308.323 527.34 307.157C527.34 306.114 527.091 305.271 526.593 304.626C526.101 303.976 525.445 303.65 524.625 303.65C523.822 303.65 523.174 303.97 522.682 304.608C522.19 305.247 521.944 306.161 521.944 307.351ZM532.543 302.49L532.596 303.686C533.323 302.771 534.272 302.314 535.444 302.314C537.454 302.314 538.467 303.448 538.485 305.716V312H536.859V305.707C536.853 305.021 536.695 304.515 536.384 304.187C536.08 303.858 535.602 303.694 534.952 303.694C534.424 303.694 533.961 303.835 533.563 304.116C533.165 304.397 532.854 304.767 532.631 305.224V312H531.005V302.49H532.543ZM553.62 312H545.235V310.831L549.665 305.909C550.321 305.165 550.772 304.562 551.018 304.099C551.27 303.63 551.396 303.146 551.396 302.648C551.396 301.98 551.194 301.433 550.79 301.005C550.385 300.577 549.846 300.363 549.172 300.363C548.364 300.363 547.734 300.595 547.283 301.058C546.837 301.515 546.615 302.153 546.615 302.974H544.989C544.989 301.796 545.367 300.844 546.123 300.117C546.884 299.391 547.901 299.027 549.172 299.027C550.362 299.027 551.302 299.341 551.994 299.968C552.685 300.589 553.031 301.418 553.031 302.455C553.031 303.715 552.228 305.215 550.623 306.955L547.195 310.673H553.62V312Z" fill="#8794BA"/>
<path d="M245.507 81H244.417V73.7754L242.232 74.5781V73.5938L245.337 72.4277H245.507V81ZM253.857 74.6953C253.857 75.1211 253.744 75.5 253.517 75.832C253.294 76.1641 252.992 76.4238 252.609 76.6113C253.054 76.8027 253.406 77.082 253.664 77.4492C253.925 77.8164 254.056 78.2324 254.056 78.6973C254.056 79.4355 253.806 80.0234 253.306 80.4609C252.81 80.8984 252.156 81.1172 251.343 81.1172C250.523 81.1172 249.865 80.8984 249.369 80.4609C248.876 80.0195 248.63 79.4316 248.63 78.6973C248.63 78.2363 248.755 77.8203 249.005 77.4492C249.259 77.0781 249.609 76.7969 250.054 76.6055C249.675 76.418 249.376 76.1582 249.158 75.8262C248.939 75.4941 248.83 75.1172 248.83 74.6953C248.83 73.9766 249.06 73.4062 249.521 72.9844C249.982 72.5625 250.589 72.3516 251.343 72.3516C252.093 72.3516 252.699 72.5625 253.16 72.9844C253.625 73.4062 253.857 73.9766 253.857 74.6953ZM252.972 78.6738C252.972 78.1973 252.82 77.8086 252.515 77.5078C252.214 77.207 251.82 77.0566 251.332 77.0566C250.843 77.0566 250.451 77.2051 250.154 77.502C249.861 77.7988 249.714 78.1895 249.714 78.6738C249.714 79.1582 249.857 79.5391 250.142 79.8164C250.431 80.0938 250.832 80.2324 251.343 80.2324C251.851 80.2324 252.25 80.0938 252.539 79.8164C252.828 79.5352 252.972 79.1543 252.972 78.6738ZM251.343 73.2422C250.917 73.2422 250.572 73.375 250.306 73.6406C250.044 73.9023 249.914 74.2598 249.914 74.7129C249.914 75.1465 250.042 75.498 250.3 75.7676C250.562 76.0332 250.91 76.166 251.343 76.166C251.777 76.166 252.123 76.0332 252.38 75.7676C252.642 75.498 252.773 75.1465 252.773 74.7129C252.773 74.2793 252.638 73.9258 252.369 73.6523C252.099 73.3789 251.757 73.2422 251.343 73.2422ZM257.789 77.8184H254.929V76.9336H257.789V77.8184ZM264.328 81H258.738V80.2207L261.691 76.9395C262.128 76.4434 262.429 76.041 262.593 75.7324C262.761 75.4199 262.845 75.0977 262.845 74.7656C262.845 74.3203 262.71 73.9551 262.441 73.6699C262.171 73.3848 261.812 73.2422 261.363 73.2422C260.824 73.2422 260.404 73.3965 260.103 73.7051C259.806 74.0098 259.658 74.4355 259.658 74.9824H258.574C258.574 74.1973 258.826 73.5625 259.33 73.0781C259.837 72.5938 260.515 72.3516 261.363 72.3516C262.156 72.3516 262.783 72.5605 263.244 72.9785C263.705 73.3926 263.935 73.9453 263.935 74.6367C263.935 75.4766 263.4 76.4766 262.33 77.6367L260.044 80.1152H264.328V81ZM270.052 78.1348H271.236V79.0195H270.052V81H268.962V79.0195H265.078V78.3809L268.898 72.4688H270.052V78.1348ZM266.308 78.1348H268.962V73.9512L268.833 74.1855L266.308 78.1348Z" fill="#8794BA"/>
<path d="M388.535 159H382.945V158.221L385.898 154.939C386.335 154.443 386.636 154.041 386.8 153.732C386.968 153.42 387.052 153.098 387.052 152.766C387.052 152.32 386.917 151.955 386.648 151.67C386.378 151.385 386.019 151.242 385.57 151.242C385.031 151.242 384.611 151.396 384.31 151.705C384.013 152.01 383.865 152.436 383.865 152.982H382.781C382.781 152.197 383.033 151.562 383.537 151.078C384.044 150.594 384.722 150.352 385.57 150.352C386.363 150.352 386.99 150.561 387.451 150.979C387.912 151.393 388.142 151.945 388.142 152.637C388.142 153.477 387.607 154.477 386.537 155.637L384.251 158.115H388.535V159ZM390.181 154.723L390.615 150.469H394.986V151.471H391.535L391.277 153.797C391.695 153.551 392.169 153.428 392.701 153.428C393.478 153.428 394.095 153.686 394.552 154.201C395.009 154.713 395.238 155.406 395.238 156.281C395.238 157.16 395 157.854 394.523 158.361C394.05 158.865 393.388 159.117 392.537 159.117C391.783 159.117 391.167 158.908 390.691 158.49C390.214 158.072 389.943 157.494 389.876 156.756H390.902C390.968 157.244 391.142 157.613 391.423 157.863C391.705 158.109 392.076 158.232 392.537 158.232C393.041 158.232 393.435 158.061 393.72 157.717C394.009 157.373 394.154 156.898 394.154 156.293C394.154 155.723 393.998 155.266 393.685 154.922C393.376 154.574 392.964 154.4 392.449 154.4C391.976 154.4 391.605 154.504 391.335 154.711L391.048 154.945L390.181 154.723ZM398.789 155.818H395.929V154.934H398.789V155.818ZM401.314 154.207H402.128C402.64 154.199 403.042 154.064 403.335 153.803C403.628 153.541 403.775 153.188 403.775 152.742C403.775 151.742 403.277 151.242 402.281 151.242C401.812 151.242 401.437 151.377 401.156 151.646C400.878 151.912 400.74 152.266 400.74 152.707H399.656C399.656 152.031 399.902 151.471 400.394 151.025C400.89 150.576 401.519 150.352 402.281 150.352C403.085 150.352 403.716 150.564 404.173 150.99C404.63 151.416 404.859 152.008 404.859 152.766C404.859 153.137 404.738 153.496 404.496 153.844C404.257 154.191 403.931 154.451 403.517 154.623C403.986 154.771 404.347 155.018 404.601 155.361C404.859 155.705 404.988 156.125 404.988 156.621C404.988 157.387 404.738 157.994 404.238 158.443C403.738 158.893 403.087 159.117 402.287 159.117C401.486 159.117 400.833 158.9 400.33 158.467C399.83 158.033 399.58 157.461 399.58 156.75H400.669C400.669 157.199 400.816 157.559 401.109 157.828C401.402 158.098 401.794 158.232 402.287 158.232C402.81 158.232 403.21 158.096 403.488 157.822C403.765 157.549 403.904 157.156 403.904 156.645C403.904 156.148 403.751 155.768 403.447 155.502C403.142 155.236 402.703 155.1 402.128 155.092H401.314V154.207ZM411.052 156.135H412.236V157.02H411.052V159H409.962V157.02H406.078V156.381L409.898 150.469H411.052V156.135ZM407.308 156.135H409.962V151.951L409.833 152.186L407.308 156.135Z" fill="#8794BA"/>
<path d="M384.521 285.207H385.335C385.847 285.199 386.25 285.064 386.542 284.803C386.835 284.541 386.982 284.188 386.982 283.742C386.982 282.742 386.484 282.242 385.488 282.242C385.019 282.242 384.644 282.377 384.363 282.646C384.085 282.912 383.947 283.266 383.947 283.707H382.863C382.863 283.031 383.109 282.471 383.601 282.025C384.097 281.576 384.726 281.352 385.488 281.352C386.292 281.352 386.923 281.564 387.38 281.99C387.837 282.416 388.066 283.008 388.066 283.766C388.066 284.137 387.945 284.496 387.703 284.844C387.464 285.191 387.138 285.451 386.724 285.623C387.193 285.771 387.554 286.018 387.808 286.361C388.066 286.705 388.195 287.125 388.195 287.621C388.195 288.387 387.945 288.994 387.445 289.443C386.945 289.893 386.294 290.117 385.494 290.117C384.693 290.117 384.041 289.9 383.537 289.467C383.037 289.033 382.787 288.461 382.787 287.75H383.876C383.876 288.199 384.023 288.559 384.316 288.828C384.609 289.098 385.001 289.232 385.494 289.232C386.017 289.232 386.417 289.096 386.695 288.822C386.972 288.549 387.111 288.156 387.111 287.645C387.111 287.148 386.958 286.768 386.654 286.502C386.349 286.236 385.91 286.1 385.335 286.092H384.521V285.207ZM390.181 285.723L390.615 281.469H394.986V282.471H391.535L391.277 284.797C391.695 284.551 392.169 284.428 392.701 284.428C393.478 284.428 394.095 284.686 394.552 285.201C395.009 285.713 395.238 286.406 395.238 287.281C395.238 288.16 395 288.854 394.523 289.361C394.05 289.865 393.388 290.117 392.537 290.117C391.783 290.117 391.167 289.908 390.691 289.49C390.214 289.072 389.943 288.494 389.876 287.756H390.902C390.968 288.244 391.142 288.613 391.423 288.863C391.705 289.109 392.076 289.232 392.537 289.232C393.041 289.232 393.435 289.061 393.72 288.717C394.009 288.373 394.154 287.898 394.154 287.293C394.154 286.723 393.998 286.266 393.685 285.922C393.376 285.574 392.964 285.4 392.449 285.4C391.976 285.4 391.605 285.504 391.335 285.711L391.048 285.945L390.181 285.723ZM398.789 286.818H395.929V285.934H398.789V286.818ZM404.314 287.135H405.498V288.02H404.314V290H403.224V288.02H399.339V287.381L403.16 281.469H404.314V287.135ZM400.57 287.135H403.224V282.951L403.095 283.186L400.57 287.135ZM411.052 287.135H412.236V288.02H411.052V290H409.962V288.02H406.078V287.381L409.898 281.469H411.052V287.135ZM407.308 287.135H409.962V282.951L409.833 283.186L407.308 287.135Z" fill="#8794BA"/>
<path d="M246.521 372.135H247.705V373.02H246.521V375H245.431V373.02H241.546V372.381L245.367 366.469H246.521V372.135ZM242.777 372.135H245.431V367.951L245.302 368.186L242.777 372.135ZM249.181 370.723L249.615 366.469H253.986V367.471H250.535L250.277 369.797C250.695 369.551 251.169 369.428 251.701 369.428C252.478 369.428 253.095 369.686 253.552 370.201C254.009 370.713 254.238 371.406 254.238 372.281C254.238 373.16 254 373.854 253.523 374.361C253.05 374.865 252.388 375.117 251.537 375.117C250.783 375.117 250.167 374.908 249.691 374.49C249.214 374.072 248.943 373.494 248.876 372.756H249.902C249.968 373.244 250.142 373.613 250.423 373.863C250.705 374.109 251.076 374.232 251.537 374.232C252.041 374.232 252.435 374.061 252.72 373.717C253.009 373.373 253.154 372.898 253.154 372.293C253.154 371.723 252.998 371.266 252.685 370.922C252.376 370.574 251.964 370.4 251.449 370.4C250.976 370.4 250.605 370.504 250.335 370.711L250.048 370.945L249.181 370.723ZM257.789 371.818H254.929V370.934H257.789V371.818ZM259.236 370.723L259.669 366.469H264.041V367.471H260.589L260.332 369.797C260.75 369.551 261.224 369.428 261.755 369.428C262.533 369.428 263.15 369.686 263.607 370.201C264.064 370.713 264.292 371.406 264.292 372.281C264.292 373.16 264.054 373.854 263.578 374.361C263.105 374.865 262.443 375.117 261.591 375.117C260.837 375.117 260.222 374.908 259.746 374.49C259.269 374.072 258.998 373.494 258.931 372.756H259.957C260.023 373.244 260.197 373.613 260.478 373.863C260.759 374.109 261.13 374.232 261.591 374.232C262.095 374.232 262.49 374.061 262.775 373.717C263.064 373.373 263.208 372.898 263.208 372.293C263.208 371.723 263.052 371.266 262.74 370.922C262.431 370.574 262.019 370.4 261.503 370.4C261.031 370.4 260.66 370.504 260.39 370.711L260.103 370.945L259.236 370.723ZM270.052 372.135H271.236V373.02H270.052V375H268.962V373.02H265.078V372.381L268.898 366.469H270.052V372.135ZM266.308 372.135H268.962V367.951L268.833 368.186L266.308 372.135Z" fill="#8794BA"/>
<path d="M101.443 285.723L101.876 281.469H106.248V282.471H102.796L102.539 284.797C102.957 284.551 103.431 284.428 103.962 284.428C104.74 284.428 105.357 284.686 105.814 285.201C106.271 285.713 106.5 286.406 106.5 287.281C106.5 288.16 106.261 288.854 105.785 289.361C105.312 289.865 104.65 290.117 103.798 290.117C103.044 290.117 102.429 289.908 101.953 289.49C101.476 289.072 101.205 288.494 101.138 287.756H102.164C102.23 288.244 102.404 288.613 102.685 288.863C102.966 289.109 103.337 289.232 103.798 289.232C104.302 289.232 104.697 289.061 104.982 288.717C105.271 288.373 105.416 287.898 105.416 287.293C105.416 286.723 105.259 286.266 104.947 285.922C104.638 285.574 104.226 285.4 103.71 285.4C103.238 285.4 102.867 285.504 102.597 285.711L102.31 285.945L101.443 285.723ZM108.181 285.723L108.615 281.469H112.986V282.471H109.535L109.277 284.797C109.695 284.551 110.169 284.428 110.701 284.428C111.478 284.428 112.095 284.686 112.552 285.201C113.009 285.713 113.238 286.406 113.238 287.281C113.238 288.16 113 288.854 112.523 289.361C112.05 289.865 111.388 290.117 110.537 290.117C109.783 290.117 109.167 289.908 108.691 289.49C108.214 289.072 107.943 288.494 107.876 287.756H108.902C108.968 288.244 109.142 288.613 109.423 288.863C109.705 289.109 110.076 289.232 110.537 289.232C111.041 289.232 111.435 289.061 111.72 288.717C112.009 288.373 112.154 287.898 112.154 287.293C112.154 286.723 111.998 286.266 111.685 285.922C111.376 285.574 110.964 285.4 110.449 285.4C109.976 285.4 109.605 285.504 109.335 285.711L109.048 285.945L108.181 285.723ZM116.789 286.818H113.929V285.934H116.789V286.818ZM121.992 281.463V282.383H121.792C120.949 282.398 120.277 282.648 119.777 283.133C119.277 283.617 118.988 284.299 118.91 285.178C119.359 284.662 119.972 284.404 120.75 284.404C121.492 284.404 122.083 284.666 122.525 285.189C122.97 285.713 123.193 286.389 123.193 287.217C123.193 288.096 122.953 288.799 122.472 289.326C121.996 289.854 121.355 290.117 120.55 290.117C119.734 290.117 119.072 289.805 118.564 289.18C118.056 288.551 117.802 287.742 117.802 286.754V286.338C117.802 284.768 118.136 283.568 118.804 282.74C119.476 281.908 120.474 281.482 121.798 281.463H121.992ZM120.568 285.307C120.197 285.307 119.855 285.418 119.542 285.641C119.23 285.863 119.013 286.143 118.892 286.479V286.877C118.892 287.58 119.05 288.146 119.367 288.576C119.683 289.006 120.078 289.221 120.55 289.221C121.039 289.221 121.421 289.041 121.699 288.682C121.98 288.322 122.121 287.852 122.121 287.27C122.121 286.684 121.978 286.211 121.693 285.852C121.412 285.488 121.037 285.307 120.568 285.307ZM129.052 287.135H130.236V288.02H129.052V290H127.962V288.02H124.078V287.381L127.898 281.469H129.052V287.135ZM125.308 287.135H127.962V282.951L127.833 283.186L125.308 287.135Z" fill="#8794BA"/>
<path d="M110.191 150.463V151.383H109.992C109.148 151.398 108.476 151.648 107.976 152.133C107.476 152.617 107.187 153.299 107.109 154.178C107.558 153.662 108.171 153.404 108.949 153.404C109.691 153.404 110.283 153.666 110.724 154.189C111.169 154.713 111.392 155.389 111.392 156.217C111.392 157.096 111.152 157.799 110.671 158.326C110.195 158.854 109.554 159.117 108.75 159.117C107.933 159.117 107.271 158.805 106.763 158.18C106.255 157.551 106.001 156.742 106.001 155.754V155.338C106.001 153.768 106.335 152.568 107.003 151.74C107.675 150.908 108.673 150.482 109.998 150.463H110.191ZM108.767 154.307C108.396 154.307 108.054 154.418 107.742 154.641C107.429 154.863 107.212 155.143 107.091 155.479V155.877C107.091 156.58 107.25 157.146 107.566 157.576C107.882 158.006 108.277 158.221 108.75 158.221C109.238 158.221 109.621 158.041 109.898 157.682C110.179 157.322 110.32 156.852 110.32 156.27C110.32 155.684 110.177 155.211 109.892 154.852C109.611 154.488 109.236 154.307 108.767 154.307ZM113.173 154.723L113.607 150.469H117.978V151.471H114.527L114.269 153.797C114.687 153.551 115.162 153.428 115.693 153.428C116.47 153.428 117.087 153.686 117.544 154.201C118.001 154.713 118.23 155.406 118.23 156.281C118.23 157.16 117.992 157.854 117.515 158.361C117.042 158.865 116.38 159.117 115.529 159.117C114.775 159.117 114.16 158.908 113.683 158.49C113.207 158.072 112.935 157.494 112.869 156.756H113.894C113.96 157.244 114.134 157.613 114.416 157.863C114.697 158.109 115.068 158.232 115.529 158.232C116.033 158.232 116.427 158.061 116.712 157.717C117.001 157.373 117.146 156.898 117.146 156.293C117.146 155.723 116.99 155.266 116.677 154.922C116.369 154.574 115.957 154.4 115.441 154.4C114.968 154.4 114.597 154.504 114.328 154.711L114.041 154.945L113.173 154.723ZM122.63 154.424H125.009V155.449H122.63V158.145H121.541V155.449H119.162V154.424H121.541V151.934H122.63V154.424Z" fill="#8794BA"/>
<defs>
<filter id="filter0_d_535_1410" x="0.870605" y="0" width="670" height="480" filterUnits="userSpaceOnUse" color-interpolation-filters="sRGB">
<feFlood flood-opacity="0" result="BackgroundImageFix"/>
<feColorMatrix in="SourceAlpha" type="matrix" values="0 0 0 0 0 0 0 0 0 0 0 0 0 0 0 0 0 0 127 0" result="hardAlpha"/>
<feMorphology radius="15" operator="erode" in="SourceAlpha" result="effect1_dropShadow_535_1410"/>
<feOffset dy="18"/>
<feGaussianBlur stdDeviation="25"/>
<feColorMatrix type="matrix" values="0 0 0 0 0.0996452 0 0 0 0 0.164326 0 0 0 0 0.350284 0 0 0 0.2 0"/>
<feBlend mode="normal" in2="BackgroundImageFix" result="effect1_dropShadow_535_1410"/>
<feBlend mode="normal" in="SourceGraphic" in2="effect1_dropShadow_535_1410" result="shape"/>
</filter>
</defs>
</svg>
